<?xml version="1.0" encoding="us-ascii" standalone="no"?><svg xmlns="http://www.w3.org/2000/svg" xmlns:xlink="http://www.w3.org/1999/xlink" contentStyleType="text/css" height="974px" preserveAspectRatio="none" style="width:397px;height:974px;background:#FFFFFF;" version="1.1" viewBox="0 0 397 974" width="397px" zoomAndPan="magnify"><defs/><g><!--class Builder--><g id="elem_Builder"><rect codeLine="2" fill="#F1F1F1" height="178.375" id="Builder" rx="2.5" ry="2.5" style="stroke:#181818;stroke-width:0.5;" width="179" x="109" y="295"/><ellipse cx="168.75" cy="311" fill="#A9DCDF" rx="11" ry="11" style="stroke:#181818;stroke-width:1.0;"/><path d="M170.8281,312.8125 L171.2188,313.7969 L170.8281,313.7969 C170.375,313.7969 170.2656,313.8125 170.1094,313.9219 C169.8594,314.0781 169.7031,314.3594 169.7031,314.6563 C169.7031,314.9219 169.8438,315.1719 170.0625,315.3281 C170.2031,315.4531 170.4063,315.5 170.8281,315.5 L173.1875,315.5 C173.5469,315.5 173.7656,315.4688 173.9063,315.375 C174.1563,315.2344 174.3125,314.9375 174.3125,314.6563 C174.3125,314.375 174.1719,314.125 173.9531,313.9688 C173.7813,313.8281 173.625,313.7969 173.1563,313.7969 L169.7656,305.5938 L166.0938,305.5938 C165.6406,305.5938 165.5156,305.6094 165.3594,305.7031 C165.1094,305.875 164.9531,306.1563 164.9531,306.4375 C164.9531,306.7188 165.0938,306.9688 165.3125,307.1406 C165.4844,307.25 165.6563,307.2813 166.0938,307.2813 L167.1719,307.2813 L164.5313,313.7969 C164.1094,313.7969 163.9531,313.8125 163.7969,313.9219 C163.5469,314.0781 163.3906,314.3594 163.3906,314.6563 C163.3906,315.2188 163.7656,315.5 164.5156,315.5 L166.7813,315.5 C167.1406,315.5 167.3594,315.4688 167.4844,315.375 C167.75,315.2344 167.8906,314.9375 167.8906,314.6563 C167.8906,314.375 167.7656,314.125 167.5469,313.9531 C167.375,313.8281 167.2344,313.7969 166.7813,313.7969 L166.3906,313.7969 L166.7813,312.8125 L170.8281,312.8125 Z M170.125,311.1094 L167.4531,311.1094 L168.7969,307.8438 L170.125,311.1094 Z " fill="#000000"/><text fill="#000000" font-family="sans-serif" font-size="14" font-style="italic" lengthAdjust="spacing" textLength="51" x="189.25" y="315.8467">Builder</text><line style="stroke:#181818;stroke-width:0.5;" x1="110" x2="287" y1="327" y2="327"/><line style="stroke:#181818;stroke-width:0.5;" x1="110" x2="287" y1="335" y2="335"/><ellipse cx="120" cy="348.6484" fill="#84BE84" rx="3" ry="3" style="stroke:#038048;stroke-width:1.0;"/><text fill="#000000" font-family="sans-serif" font-size="14" font-style="italic" lengthAdjust="spacing" textLength="96" x="129" y="351.9951">pizza() : None</text><ellipse cx="120" cy="364.9453" fill="#84BE84" rx="3" ry="3" style="stroke:#038048;stroke-width:1.0;"/><text fill="#000000" font-family="sans-serif" font-size="14" font-style="italic" lengthAdjust="spacing" textLength="99" x="129" y="368.292">masa() : None</text><ellipse cx="120" cy="381.2422" fill="#84BE84" rx="3" ry="3" style="stroke:#038048;stroke-width:1.0;"/><text fill="#000000" font-family="sans-serif" font-size="14" font-style="italic" lengthAdjust="spacing" textLength="94" x="129" y="384.5889">base() : None</text><ellipse cx="120" cy="397.5391" fill="#84BE84" rx="3" ry="3" style="stroke:#038048;stroke-width:1.0;"/><text fill="#000000" font-family="sans-serif" font-size="14" font-style="italic" lengthAdjust="spacing" textLength="149" x="129" y="400.8857">ingredientes() : None</text><ellipse cx="120" cy="413.8359" fill="#84BE84" rx="3" ry="3" style="stroke:#038048;stroke-width:1.0;"/><text fill="#000000" font-family="sans-serif" font-size="14" font-style="italic" lengthAdjust="spacing" textLength="115" x="129" y="417.1826">coccion() : None</text><ellipse cx="120" cy="430.1328" fill="#84BE84" rx="3" ry="3" style="stroke:#038048;stroke-width:1.0;"/><text fill="#000000" font-family="sans-serif" font-size="14" font-style="italic" lengthAdjust="spacing" textLength="153" x="129" y="433.4795">presentacion() : None</text><ellipse cx="120" cy="446.4297" fill="#84BE84" rx="3" ry="3" style="stroke:#038048;stroke-width:1.0;"/><text fill="#000000" font-family="sans-serif" font-size="14" font-style="italic" lengthAdjust="spacing" textLength="131" x="129" y="449.7764">maridajes() : None</text><ellipse cx="120" cy="462.7266" fill="#84BE84" rx="3" ry="3" style="stroke:#038048;stroke-width:1.0;"/><text fill="#000000" font-family="sans-serif" font-size="14" font-style="italic" lengthAdjust="spacing" textLength="104" x="129" y="466.0732">extras() : None</text></g><!--class PizzaBuilder--><g id="elem_PizzaBuilder"><rect codeLine="14" fill="#F1F1F1" height="227.2656" id="PizzaBuilder" rx="2.5" ry="2.5" style="stroke:#181818;stroke-width:0.5;" width="383" x="7" y="534"/><ellipse cx="150.75" cy="550" fill="#ADD1B2" rx="11" ry="11" style="stroke:#181818;stroke-width:1.0;"/><path d="M153.0938,545.6719 C152.1563,545.2344 151.5625,545.0938 150.6875,545.0938 C148.0625,545.0938 146.0625,547.1719 146.0625,549.8906 L146.0625,551.0156 C146.0625,553.5938 148.1719,555.4844 151.0625,555.4844 C152.2813,555.4844 153.4375,555.1875 154.1875,554.6406 C154.7656,554.2344 155.0938,553.7813 155.0938,553.3906 C155.0938,552.9375 154.7031,552.5469 154.2344,552.5469 C154.0156,552.5469 153.8125,552.625 153.625,552.8125 C153.1719,553.2969 153.1719,553.2969 152.9844,553.3906 C152.5625,553.6563 151.875,553.7813 151.1094,553.7813 C149.0625,553.7813 147.7656,552.6875 147.7656,550.9844 L147.7656,549.8906 C147.7656,548.1094 149.0156,546.7969 150.75,546.7969 C151.3281,546.7969 151.9375,546.9531 152.4063,547.2031 C152.8906,547.4844 153.0625,547.7031 153.1563,548.1094 C153.2188,548.5156 153.25,548.6406 153.3906,548.7656 C153.5313,548.9063 153.7656,549.0156 153.9844,549.0156 C154.25,549.0156 154.5156,548.875 154.6875,548.6563 C154.7969,548.5 154.8281,548.3125 154.8281,547.8906 L154.8281,546.4688 C154.8281,546.0313 154.8125,545.9063 154.7188,545.75 C154.5625,545.4844 154.2813,545.3438 153.9844,545.3438 C153.6875,545.3438 153.4844,545.4375 153.2656,545.75 L153.0938,545.6719 Z " fill="#000000"/><text fill="#000000" font-family="sans-serif" font-size="14" lengthAdjust="spacing" textLength="87" x="171.25" y="554.8467">PizzaBuilder</text><line style="stroke:#181818;stroke-width:0.5;" x1="8" x2="389" y1="566" y2="566"/><rect fill="none" height="6" style="stroke:#C82930;stroke-width:1.0;" width="6" x="15" y="576.6484"/><text fill="#000000" font-family="sans-serif" font-size="14" lengthAdjust="spacing" textLength="95" x="27" y="582.9951">_pizza : Pizza</text><line style="stroke:#181818;stroke-width:0.5;" x1="8" x2="389" y1="590.2969" y2="590.2969"/><ellipse cx="18" cy="603.9453" fill="#84BE84" rx="3" ry="3" style="stroke:#038048;stroke-width:1.0;"/><text fill="#000000" font-family="sans-serif" font-size="14" lengthAdjust="spacing" textLength="98" x="27" y="607.292">pizza() : Pizza</text><ellipse cx="18" cy="620.2422" fill="#84BE84" rx="3" ry="3" style="stroke:#038048;stroke-width:1.0;"/><text fill="#000000" font-family="sans-serif" font-size="14" lengthAdjust="spacing" textLength="182" x="27" y="623.5889">masa(masa : Masa) : None</text><ellipse cx="18" cy="636.5391" fill="#84BE84" rx="3" ry="3" style="stroke:#038048;stroke-width:1.0;"/><text fill="#000000" font-family="sans-serif" font-size="14" lengthAdjust="spacing" textLength="175" x="27" y="639.8857">base(base : Base) : None</text><ellipse cx="18" cy="652.8359" fill="#84BE84" rx="3" ry="3" style="stroke:#038048;stroke-width:1.0;"/><text fill="#000000" font-family="sans-serif" font-size="14" lengthAdjust="spacing" textLength="346" x="27" y="656.1826">ingredientes(ingredientes : Ingredientes) : None</text><ellipse cx="18" cy="669.1328" fill="#84BE84" rx="3" ry="3" style="stroke:#038048;stroke-width:1.0;"/><text fill="#000000" font-family="sans-serif" font-size="14" lengthAdjust="spacing" textLength="240" x="27" y="672.4795">coccion(coccion : Coccion) : None</text><ellipse cx="18" cy="685.4297" fill="#84BE84" rx="3" ry="3" style="stroke:#038048;stroke-width:1.0;"/><text fill="#000000" font-family="sans-serif" font-size="14" lengthAdjust="spacing" textLength="357" x="27" y="688.7764">presentacion(presentacion : Presentacion) : None</text><ellipse cx="18" cy="701.7266" fill="#84BE84" rx="3" ry="3" style="stroke:#038048;stroke-width:1.0;"/><text fill="#000000" font-family="sans-serif" font-size="14" lengthAdjust="spacing" textLength="278" x="27" y="705.0732">maridajes(maridajes : Maridajes) : None</text><ellipse cx="18" cy="718.0234" fill="#84BE84" rx="3" ry="3" style="stroke:#038048;stroke-width:1.0;"/><text fill="#000000" font-family="sans-serif" font-size="14" lengthAdjust="spacing" textLength="208" x="27" y="721.3701">extras(extras : Extras) : None</text><ellipse cx="18" cy="734.3203" fill="#84BE84" rx="3" ry="3" style="stroke:#038048;stroke-width:1.0;"/><text fill="#000000" font-family="sans-serif" font-size="14" lengthAdjust="spacing" textLength="98" x="27" y="737.667">reset() : None</text><ellipse cx="18" cy="750.6172" fill="#84BE84" rx="3" ry="3" style="stroke:#038048;stroke-width:1.0;"/><text fill="#000000" font-family="sans-serif" font-size="14" lengthAdjust="spacing" textLength="112" x="27" y="753.9639">__init__() : None</text></g><!--class Pizza--><g id="elem_Pizza"><rect codeLine="29" fill="#F1F1F1" height="129.4844" id="Pizza" rx="2.5" ry="2.5" style="stroke:#181818;stroke-width:0.5;" width="238" x="79.5" y="838"/><ellipse cx="175.75" cy="854" fill="#ADD1B2" rx="11" ry="11" style="stroke:#181818;stroke-width:1.0;"/><path d="M178.0938,849.6719 C177.1563,849.2344 176.5625,849.0938 175.6875,849.0938 C173.0625,849.0938 171.0625,851.1719 171.0625,853.8906 L171.0625,855.0156 C171.0625,857.5938 173.1719,859.4844 176.0625,859.4844 C177.2813,859.4844 178.4375,859.1875 179.1875,858.6406 C179.7656,858.2344 180.0938,857.7813 180.0938,857.3906 C180.0938,856.9375 179.7031,856.5469 179.2344,856.5469 C179.0156,856.5469 178.8125,856.625 178.625,856.8125 C178.1719,857.2969 178.1719,857.2969 177.9844,857.3906 C177.5625,857.6563 176.875,857.7813 176.1094,857.7813 C174.0625,857.7813 172.7656,856.6875 172.7656,854.9844 L172.7656,853.8906 C172.7656,852.1094 174.0156,850.7969 175.75,850.7969 C176.3281,850.7969 176.9375,850.9531 177.4063,851.2031 C177.8906,851.4844 178.0625,851.7031 178.1563,852.1094 C178.2188,852.5156 178.25,852.6406 178.3906,852.7656 C178.5313,852.9063 178.7656,853.0156 178.9844,853.0156 C179.25,853.0156 179.5156,852.875 179.6875,852.6563 C179.7969,852.5 179.8281,852.3125 179.8281,851.8906 L179.8281,850.4688 C179.8281,850.0313 179.8125,849.9063 179.7188,849.75 C179.5625,849.4844 179.2813,849.3438 178.9844,849.3438 C178.6875,849.3438 178.4844,849.4375 178.2656,849.75 L178.0938,849.6719 Z " fill="#000000"/><text fill="#000000" font-family="sans-serif" font-size="14" lengthAdjust="spacing" textLength="37" x="196.25" y="858.8467">Pizza</text><line style="stroke:#181818;stroke-width:0.5;" x1="80.5" x2="316.5" y1="870" y2="870"/><rect fill="none" height="6" style="stroke:#C82930;stroke-width:1.0;" width="6" x="87.5" y="880.6484"/><text fill="#000000" font-family="sans-serif" font-size="14" lengthAdjust="spacing" textLength="73" x="99.5" y="886.9951">parts : list</text><line style="stroke:#181818;stroke-width:0.5;" x1="80.5" x2="316.5" y1="894.2969" y2="894.2969"/><ellipse cx="90.5" cy="907.9453" fill="#84BE84" rx="3" ry="3" style="stroke:#038048;stroke-width:1.0;"/><text fill="#000000" font-family="sans-serif" font-size="14" lengthAdjust="spacing" textLength="157" x="99.5" y="911.292">add(part : Any) : None</text><ellipse cx="90.5" cy="924.2422" fill="#84BE84" rx="3" ry="3" style="stroke:#038048;stroke-width:1.0;"/><text fill="#000000" font-family="sans-serif" font-size="14" lengthAdjust="spacing" textLength="127" x="99.5" y="927.5889">list_parts() : None</text><ellipse cx="90.5" cy="940.5391" fill="#84BE84" rx="3" ry="3" style="stroke:#038048;stroke-width:1.0;"/><text fill="#000000" font-family="sans-serif" font-size="14" lengthAdjust="spacing" textLength="212" x="99.5" y="943.8857">guardar_ingredientes() : None</text><ellipse cx="90.5" cy="956.8359" fill="#84BE84" rx="3" ry="3" style="stroke:#038048;stroke-width:1.0;"/><text fill="#000000" font-family="sans-serif" font-size="14" lengthAdjust="spacing" textLength="112" x="99.5" y="960.1826">__init__() : None</text></g><!--class Pizzeria--><g id="elem_Pizzeria"><rect codeLine="38" fill="#F1F1F1" height="210.9688" id="Pizzeria" rx="2.5" ry="2.5" style="stroke:#181818;stroke-width:0.5;" width="249" x="74" y="7"/><ellipse cx="166.25" cy="23" fill="#ADD1B2" rx="11" ry="11" style="stroke:#181818;stroke-width:1.0;"/><path d="M168.5938,18.6719 C167.6563,18.2344 167.0625,18.0938 166.1875,18.0938 C163.5625,18.0938 161.5625,20.1719 161.5625,22.8906 L161.5625,24.0156 C161.5625,26.5938 163.6719,28.4844 166.5625,28.4844 C167.7813,28.4844 168.9375,28.1875 169.6875,27.6406 C170.2656,27.2344 170.5938,26.7813 170.5938,26.3906 C170.5938,25.9375 170.2031,25.5469 169.7344,25.5469 C169.5156,25.5469 169.3125,25.625 169.125,25.8125 C168.6719,26.2969 168.6719,26.2969 168.4844,26.3906 C168.0625,26.6563 167.375,26.7813 166.6094,26.7813 C164.5625,26.7813 163.2656,25.6875 163.2656,23.9844 L163.2656,22.8906 C163.2656,21.1094 164.5156,19.7969 166.25,19.7969 C166.8281,19.7969 167.4375,19.9531 167.9063,20.2031 C168.3906,20.4844 168.5625,20.7031 168.6563,21.1094 C168.7188,21.5156 168.75,21.6406 168.8906,21.7656 C169.0313,21.9063 169.2656,22.0156 169.4844,22.0156 C169.75,22.0156 170.0156,21.875 170.1875,21.6563 C170.2969,21.5 170.3281,21.3125 170.3281,20.8906 L170.3281,19.4688 C170.3281,19.0313 170.3125,18.9063 170.2188,18.75 C170.0625,18.4844 169.7813,18.3438 169.4844,18.3438 C169.1875,18.3438 168.9844,18.4375 168.7656,18.75 L168.5938,18.6719 Z " fill="#000000"/><text fill="#000000" font-family="sans-serif" font-size="14" lengthAdjust="spacing" textLength="56" x="186.75" y="27.8467">Pizzeria</text><line style="stroke:#181818;stroke-width:0.5;" x1="75" x2="322" y1="39" y2="39"/><rect fill="none" height="6" style="stroke:#C82930;stroke-width:1.0;" width="6" x="82" y="49.6484"/><text fill="#000000" font-family="sans-serif" font-size="14" lengthAdjust="spacing" textLength="120" x="94" y="55.9951">_builder : Builder</text><line style="stroke:#181818;stroke-width:0.5;" x1="75" x2="322" y1="63.2969" y2="63.2969"/><ellipse cx="85" cy="76.9453" fill="#84BE84" rx="3" ry="3" style="stroke:#038048;stroke-width:1.0;"/><text fill="#000000" font-family="sans-serif" font-size="14" lengthAdjust="spacing" textLength="123" x="94" y="80.292">builder() : Builder</text><ellipse cx="85" cy="93.2422" fill="#84BE84" rx="3" ry="3" style="stroke:#038048;stroke-width:1.0;"/><text fill="#000000" font-family="sans-serif" font-size="14" lengthAdjust="spacing" textLength="223" x="94" y="96.5889">builder(builder : Builder) : None</text><ellipse cx="85" cy="109.5391" fill="#84BE84" rx="3" ry="3" style="stroke:#038048;stroke-width:1.0;"/><text fill="#000000" font-family="sans-serif" font-size="14" lengthAdjust="spacing" textLength="181" x="94" y="112.8857">pizza_pepperoni() : None</text><ellipse cx="85" cy="125.8359" fill="#84BE84" rx="3" ry="3" style="stroke:#038048;stroke-width:1.0;"/><text fill="#000000" font-family="sans-serif" font-size="14" lengthAdjust="spacing" textLength="198" x="94" y="129.1826">pizza_jamon_queso() : None</text><ellipse cx="85" cy="142.1328" fill="#84BE84" rx="3" ry="3" style="stroke:#038048;stroke-width:1.0;"/><text fill="#000000" font-family="sans-serif" font-size="14" lengthAdjust="spacing" textLength="170" x="94" y="145.4795">pizza_hawaiana() : None</text><ellipse cx="85" cy="158.4297" fill="#84BE84" rx="3" ry="3" style="stroke:#038048;stroke-width:1.0;"/><text fill="#000000" font-family="sans-serif" font-size="14" lengthAdjust="spacing" textLength="156" x="94" y="161.7764">pizza_vegana() : None</text><ellipse cx="85" cy="174.7266" fill="#84BE84" rx="3" ry="3" style="stroke:#038048;stroke-width:1.0;"/><text fill="#000000" font-family="sans-serif" font-size="14" lengthAdjust="spacing" textLength="164" x="94" y="178.0732">pizza_especial() : None</text><ellipse cx="85" cy="191.0234" fill="#84BE84" rx="3" ry="3" style="stroke:#038048;stroke-width:1.0;"/><text fill="#000000" font-family="sans-serif" font-size="14" lengthAdjust="spacing" textLength="159" x="94" y="194.3701">personalizada() : None</text><ellipse cx="85" cy="207.3203" fill="#84BE84" rx="3" ry="3" style="stroke:#038048;stroke-width:1.0;"/><text fill="#000000" font-family="sans-serif" font-size="14" lengthAdjust="spacing" textLength="112" x="94" y="210.667">__init__() : None</text></g><!--reverse link Builder to PizzaBuilder--><g id="link_Builder_PizzaBuilder"><path codeLine="52" d="M198.5,491.167 C198.5,510.591 198.5,513.423 198.5,533.67 " fill="none" id="Builder-backto-PizzaBuilder" style="stroke:#181818;stroke-width:1.0;"/><polygon fill="none" points="198.5,473.167,192.5,491.167,204.5,491.167,198.5,473.167" style="stroke:#181818;stroke-width:1.0;"/></g><!--reverse link PizzaBuilder to Pizza--><g id="link_PizzaBuilder_Pizza"><path codeLine="53" d="M198.5,773.311 C198.5,799.534 198.5,814.55 198.5,837.782 " fill="none" id="PizzaBuilder-backto-Pizza" style="stroke:#181818;stroke-width:1.0;"/><polygon fill="none" points="198.5,761.311,194.5,767.311,198.5,773.311,202.5,767.311,198.5,761.311" style="stroke:#181818;stroke-width:1.0;"/><polygon fill="#000000" points="203.5,804.5664,206.4389,795.5213,200.5611,795.5213,203.5,804.5664" style="stroke:#000000;stroke-width:1.0;"/><text fill="#000000" font-family="sans-serif" font-size="13" lengthAdjust="spacing" textLength="37" x="212.5" y="804.0669">builds</text></g><!--reverse link Pizzeria to Builder--><g id="link_Pizzeria_Builder"><path codeLine="54" d="M198.5,230.081 C198.5,255.382 198.5,270.179 198.5,294.65 " fill="none" id="Pizzeria-backto-Builder" style="stroke:#181818;stroke-width:1.0;"/><polygon fill="none" points="198.5,218.081,194.5,224.081,198.5,230.081,202.5,224.081,198.5,218.081" style="stroke:#181818;stroke-width:1.0;"/><polygon fill="#000000" points="203.5,261.5664,206.4389,252.5213,200.5611,252.5213,203.5,261.5664" style="stroke:#000000;stroke-width:1.0;"/><text fill="#000000" font-family="sans-serif" font-size="13" lengthAdjust="spacing" textLength="30" x="212.5" y="261.0669">uses</text></g><!--SRC=[bPFDKWCX3CVl-nJSMiVf2tISpbZru46dRy2a42kTBQo1zQErxowm7qAxMySUbYJ_4D8VOSBkyKLfPB2sZa0u9agmjiXTjgnLAP7OeM3-T-ZK8xkkr7uFqoisPyz6uvcy0tj1NOF5SLNf3Q5Kg1tQyInXX516ZoTKXDRNWCjPEo0bONlf9FpqLg8VYsBIuHD62qA7BRw6sYgmoT7DU0JcIqGnnXA6IJ2I2nyVVl9BrbP3BdnyTEcNNCt8fOxFUapSV5T7ibszTjTOULh6CtL2_ucRx_hbsrlnZxLsdjoIRXQlF4GZpmadkVoohZbNMZdEX-zeHKRM_OGdLzJTJGNamd6biguf259EGzG7R_LNVbZ8ud7BIHUR6aW2yV7v_QFHUqKedA6pJf5KtonVjuCrxrvdEncD4oiF2cVxJgut4E4LLXMIqMewf6vXPpH_gz6QGVqLFa21Xa7n7JTZ4jeAXOBoL4IoHaEfzY3XNoG9It1-5ctHFSERxzaiUvX5zafDf_fg4PHbYw977zHbZw-sVeONFm00]--></g></svg>