<?xml version="1.0" encoding="us-ascii" standalone="no"?><svg xmlns="http://www.w3.org/2000/svg" xmlns:xlink="http://www.w3.org/1999/xlink" contentStyleType="text/css" height="571px" preserveAspectRatio="none" style="width:796px;height:571px;background:#FFFFFF;" version="1.1" viewBox="0 0 796 571" width="796px" zoomAndPan="magnify"><defs/><g><!--class Component--><g id="elem_Component"><rect codeLine="1" fill="#F1F1F1" height="145.7813" id="Component" rx="2.5" ry="2.5" style="stroke:#181818;stroke-width:0.5;" width="303" x="354.5" y="7"/><ellipse cx="460.25" cy="23" fill="#A9DCDF" rx="11" ry="11" style="stroke:#181818;stroke-width:1.0;"/><path d="M462.3281,24.8125 L462.7188,25.7969 L462.3281,25.7969 C461.875,25.7969 461.7656,25.8125 461.6094,25.9219 C461.3594,26.0781 461.2031,26.3594 461.2031,26.6563 C461.2031,26.9219 461.3438,27.1719 461.5625,27.3281 C461.7031,27.4531 461.9063,27.5 462.3281,27.5 L464.6875,27.5 C465.0469,27.5 465.2656,27.4688 465.4063,27.375 C465.6563,27.2344 465.8125,26.9375 465.8125,26.6563 C465.8125,26.375 465.6719,26.125 465.4531,25.9688 C465.2813,25.8281 465.125,25.7969 464.6563,25.7969 L461.2656,17.5938 L457.5938,17.5938 C457.1406,17.5938 457.0156,17.6094 456.8594,17.7031 C456.6094,17.875 456.4531,18.1563 456.4531,18.4375 C456.4531,18.7188 456.5938,18.9688 456.8125,19.1406 C456.9844,19.25 457.1563,19.2813 457.5938,19.2813 L458.6719,19.2813 L456.0313,25.7969 C455.6094,25.7969 455.4531,25.8125 455.2969,25.9219 C455.0469,26.0781 454.8906,26.3594 454.8906,26.6563 C454.8906,27.2188 455.2656,27.5 456.0156,27.5 L458.2813,27.5 C458.6406,27.5 458.8594,27.4688 458.9844,27.375 C459.25,27.2344 459.3906,26.9375 459.3906,26.6563 C459.3906,26.375 459.2656,26.125 459.0469,25.9531 C458.875,25.8281 458.7344,25.7969 458.2813,25.7969 L457.8906,25.7969 L458.2813,24.8125 L462.3281,24.8125 Z M461.625,23.1094 L458.9531,23.1094 L460.2969,19.8438 L461.625,23.1094 Z " fill="#000000"/><text fill="#000000" font-family="sans-serif" font-size="14" font-style="italic" lengthAdjust="spacing" textLength="83" x="480.75" y="27.8467">Component</text><line style="stroke:#181818;stroke-width:0.5;" x1="355.5" x2="656.5" y1="39" y2="39"/><ellipse cx="365.5" cy="52.6484" fill="none" rx="3" ry="3" style="stroke:#038048;stroke-width:1.0;"/><text fill="#000000" font-family="sans-serif" font-size="14" font-style="italic" lengthAdjust="spacing" textLength="139" x="374.5" y="55.9951">parent: Component</text><line style="stroke:#181818;stroke-width:0.5;" x1="355.5" x2="656.5" y1="63.2969" y2="63.2969"/><ellipse cx="365.5" cy="76.9453" fill="#84BE84" rx="3" ry="3" style="stroke:#038048;stroke-width:1.0;"/><text fill="#000000" font-family="sans-serif" font-size="14" font-style="italic" lengthAdjust="spacing" textLength="235" x="374.5" y="80.292">parent(parent: Component): void</text><ellipse cx="365.5" cy="93.2422" fill="#84BE84" rx="3" ry="3" style="stroke:#038048;stroke-width:1.0;"/><text fill="#000000" font-family="sans-serif" font-size="14" font-style="italic" lengthAdjust="spacing" textLength="249" x="374.5" y="96.5889">add(component: Component): void</text><ellipse cx="365.5" cy="109.5391" fill="#84BE84" rx="3" ry="3" style="stroke:#038048;stroke-width:1.0;"/><text fill="#000000" font-family="sans-serif" font-size="14" font-style="italic" lengthAdjust="spacing" textLength="277" x="374.5" y="112.8857">remove(component: Component): void</text><ellipse cx="365.5" cy="125.8359" fill="#84BE84" rx="3" ry="3" style="stroke:#038048;stroke-width:1.0;"/><text fill="#000000" font-family="sans-serif" font-size="14" font-style="italic" lengthAdjust="spacing" textLength="142" x="374.5" y="129.1826">is_composite(): bool</text><ellipse cx="365.5" cy="142.1328" fill="#84BE84" rx="3" ry="3" style="stroke:#038048;stroke-width:1.0;"/><text fill="#000000" font-family="sans-serif" font-size="14" font-style="italic" lengthAdjust="spacing" textLength="106" x="374.5" y="145.4795">operation(): str</text></g><!--class Leaf--><g id="elem_Leaf"><rect codeLine="10" fill="#F1F1F1" height="64.2969" id="Leaf" rx="2.5" ry="2.5" style="stroke:#181818;stroke-width:0.5;" width="136" x="309" y="262"/><ellipse cx="357.25" cy="278" fill="#ADD1B2" rx="11" ry="11" style="stroke:#181818;stroke-width:1.0;"/><path d="M359.5938,273.6719 C358.6563,273.2344 358.0625,273.0938 357.1875,273.0938 C354.5625,273.0938 352.5625,275.1719 352.5625,277.8906 L352.5625,279.0156 C352.5625,281.5938 354.6719,283.4844 357.5625,283.4844 C358.7813,283.4844 359.9375,283.1875 360.6875,282.6406 C361.2656,282.2344 361.5938,281.7813 361.5938,281.3906 C361.5938,280.9375 361.2031,280.5469 360.7344,280.5469 C360.5156,280.5469 360.3125,280.625 360.125,280.8125 C359.6719,281.2969 359.6719,281.2969 359.4844,281.3906 C359.0625,281.6563 358.375,281.7813 357.6094,281.7813 C355.5625,281.7813 354.2656,280.6875 354.2656,278.9844 L354.2656,277.8906 C354.2656,276.1094 355.5156,274.7969 357.25,274.7969 C357.8281,274.7969 358.4375,274.9531 358.9063,275.2031 C359.3906,275.4844 359.5625,275.7031 359.6563,276.1094 C359.7188,276.5156 359.75,276.6406 359.8906,276.7656 C360.0313,276.9063 360.2656,277.0156 360.4844,277.0156 C360.75,277.0156 361.0156,276.875 361.1875,276.6563 C361.2969,276.5 361.3281,276.3125 361.3281,275.8906 L361.3281,274.4688 C361.3281,274.0313 361.3125,273.9063 361.2188,273.75 C361.0625,273.4844 360.7813,273.3438 360.4844,273.3438 C360.1875,273.3438 359.9844,273.4375 359.7656,273.75 L359.5938,273.6719 Z " fill="#000000"/><text fill="#000000" font-family="sans-serif" font-size="14" lengthAdjust="spacing" textLength="31" x="377.75" y="282.8467">Leaf</text><line style="stroke:#181818;stroke-width:0.5;" x1="310" x2="444" y1="294" y2="294"/><line style="stroke:#181818;stroke-width:0.5;" x1="310" x2="444" y1="302" y2="302"/><ellipse cx="320" cy="315.6484" fill="#84BE84" rx="3" ry="3" style="stroke:#038048;stroke-width:1.0;"/><text fill="#000000" font-family="sans-serif" font-size="14" lengthAdjust="spacing" textLength="110" x="329" y="318.9951">operation(): str</text></g><!--class Documentos--><g id="elem_Documentos"><rect codeLine="14" fill="#F1F1F1" height="129.4844" id="Documentos" rx="2.5" ry="2.5" style="stroke:#181818;stroke-width:0.5;" width="416" x="7" y="435"/><ellipse cx="165.25" cy="451" fill="#ADD1B2" rx="11" ry="11" style="stroke:#181818;stroke-width:1.0;"/><path d="M167.5938,446.6719 C166.6563,446.2344 166.0625,446.0938 165.1875,446.0938 C162.5625,446.0938 160.5625,448.1719 160.5625,450.8906 L160.5625,452.0156 C160.5625,454.5938 162.6719,456.4844 165.5625,456.4844 C166.7813,456.4844 167.9375,456.1875 168.6875,455.6406 C169.2656,455.2344 169.5938,454.7813 169.5938,454.3906 C169.5938,453.9375 169.2031,453.5469 168.7344,453.5469 C168.5156,453.5469 168.3125,453.625 168.125,453.8125 C167.6719,454.2969 167.6719,454.2969 167.4844,454.3906 C167.0625,454.6563 166.375,454.7813 165.6094,454.7813 C163.5625,454.7813 162.2656,453.6875 162.2656,451.9844 L162.2656,450.8906 C162.2656,449.1094 163.5156,447.7969 165.25,447.7969 C165.8281,447.7969 166.4375,447.9531 166.9063,448.2031 C167.3906,448.4844 167.5625,448.7031 167.6563,449.1094 C167.7188,449.5156 167.75,449.6406 167.8906,449.7656 C168.0313,449.9063 168.2656,450.0156 168.4844,450.0156 C168.75,450.0156 169.0156,449.875 169.1875,449.6563 C169.2969,449.5 169.3281,449.3125 169.3281,448.8906 L169.3281,447.4688 C169.3281,447.0313 169.3125,446.9063 169.2188,446.75 C169.0625,446.4844 168.7813,446.3438 168.4844,446.3438 C168.1875,446.3438 167.9844,446.4375 167.7656,446.75 L167.5938,446.6719 Z " fill="#000000"/><text fill="#000000" font-family="sans-serif" font-size="14" lengthAdjust="spacing" textLength="91" x="185.75" y="455.8467">Documentos</text><line style="stroke:#181818;stroke-width:0.5;" x1="8" x2="422" y1="467" y2="467"/><rect fill="none" height="6" style="stroke:#C82930;stroke-width:1.0;" width="6" x="15" y="477.6484"/><text fill="#000000" font-family="sans-serif" font-size="14" lengthAdjust="spacing" textLength="108" x="27" y="483.9951">nombre: string</text><rect fill="none" height="6" style="stroke:#C82930;stroke-width:1.0;" width="6" x="15" y="493.9453"/><text fill="#000000" font-family="sans-serif" font-size="14" lengthAdjust="spacing" textLength="81" x="27" y="500.292">tipo: string</text><rect fill="none" height="6" style="stroke:#C82930;stroke-width:1.0;" width="6" x="15" y="510.2422"/><text fill="#000000" font-family="sans-serif" font-size="14" lengthAdjust="spacing" textLength="84" x="27" y="516.5889">tamano: int</text><line style="stroke:#181818;stroke-width:0.5;" x1="8" x2="422" y1="523.8906" y2="523.8906"/><ellipse cx="18" cy="537.5391" fill="#84BE84" rx="3" ry="3" style="stroke:#038048;stroke-width:1.0;"/><text fill="#000000" font-family="sans-serif" font-size="14" lengthAdjust="spacing" textLength="390" x="27" y="540.8857">Documentos(nombre: string, tipo: string, tamano: int)</text><ellipse cx="18" cy="553.8359" fill="#84BE84" rx="3" ry="3" style="stroke:#038048;stroke-width:1.0;"/><text fill="#000000" font-family="sans-serif" font-size="14" lengthAdjust="spacing" textLength="110" x="27" y="557.1826">operation(): str</text></g><!--class Links--><g id="elem_Links"><rect codeLine="23" fill="#F1F1F1" height="96.8906" id="Links" rx="2.5" ry="2.5" style="stroke:#181818;stroke-width:0.5;" width="164" x="458" y="451"/><ellipse cx="517.25" cy="467" fill="#ADD1B2" rx="11" ry="11" style="stroke:#181818;stroke-width:1.0;"/><path d="M519.5938,462.6719 C518.6563,462.2344 518.0625,462.0938 517.1875,462.0938 C514.5625,462.0938 512.5625,464.1719 512.5625,466.8906 L512.5625,468.0156 C512.5625,470.5938 514.6719,472.4844 517.5625,472.4844 C518.7813,472.4844 519.9375,472.1875 520.6875,471.6406 C521.2656,471.2344 521.5938,470.7813 521.5938,470.3906 C521.5938,469.9375 521.2031,469.5469 520.7344,469.5469 C520.5156,469.5469 520.3125,469.625 520.125,469.8125 C519.6719,470.2969 519.6719,470.2969 519.4844,470.3906 C519.0625,470.6563 518.375,470.7813 517.6094,470.7813 C515.5625,470.7813 514.2656,469.6875 514.2656,467.9844 L514.2656,466.8906 C514.2656,465.1094 515.5156,463.7969 517.25,463.7969 C517.8281,463.7969 518.4375,463.9531 518.9063,464.2031 C519.3906,464.4844 519.5625,464.7031 519.6563,465.1094 C519.7188,465.5156 519.75,465.6406 519.8906,465.7656 C520.0313,465.9063 520.2656,466.0156 520.4844,466.0156 C520.75,466.0156 521.0156,465.875 521.1875,465.6563 C521.2969,465.5 521.3281,465.3125 521.3281,464.8906 L521.3281,463.4688 C521.3281,463.0313 521.3125,462.9063 521.2188,462.75 C521.0625,462.4844 520.7813,462.3438 520.4844,462.3438 C520.1875,462.3438 519.9844,462.4375 519.7656,462.75 L519.5938,462.6719 Z " fill="#000000"/><text fill="#000000" font-family="sans-serif" font-size="14" lengthAdjust="spacing" textLength="37" x="537.75" y="471.8467">Links</text><line style="stroke:#181818;stroke-width:0.5;" x1="459" x2="621" y1="483" y2="483"/><rect fill="none" height="6" style="stroke:#C82930;stroke-width:1.0;" width="6" x="466" y="493.6484"/><text fill="#000000" font-family="sans-serif" font-size="14" lengthAdjust="spacing" textLength="91" x="478" y="499.9951">name: string</text><line style="stroke:#181818;stroke-width:0.5;" x1="459" x2="621" y1="507.2969" y2="507.2969"/><ellipse cx="469" cy="520.9453" fill="#84BE84" rx="3" ry="3" style="stroke:#038048;stroke-width:1.0;"/><text fill="#000000" font-family="sans-serif" font-size="14" lengthAdjust="spacing" textLength="138" x="478" y="524.292">Links(name: string)</text><ellipse cx="469" cy="537.2422" fill="#84BE84" rx="3" ry="3" style="stroke:#038048;stroke-width:1.0;"/><text fill="#000000" font-family="sans-serif" font-size="14" lengthAdjust="spacing" textLength="110" x="478" y="540.5889">operation(): str</text></g><!--class Carpeta--><g id="elem_Carpeta"><rect codeLine="30" fill="#F1F1F1" height="162.0781" id="Carpeta" rx="2.5" ry="2.5" style="stroke:#181818;stroke-width:0.5;" width="309" x="480.5" y="213"/><ellipse cx="601.75" cy="229" fill="#ADD1B2" rx="11" ry="11" style="stroke:#181818;stroke-width:1.0;"/><path d="M604.0938,224.6719 C603.1563,224.2344 602.5625,224.0938 601.6875,224.0938 C599.0625,224.0938 597.0625,226.1719 597.0625,228.8906 L597.0625,230.0156 C597.0625,232.5938 599.1719,234.4844 602.0625,234.4844 C603.2813,234.4844 604.4375,234.1875 605.1875,233.6406 C605.7656,233.2344 606.0938,232.7813 606.0938,232.3906 C606.0938,231.9375 605.7031,231.5469 605.2344,231.5469 C605.0156,231.5469 604.8125,231.625 604.625,231.8125 C604.1719,232.2969 604.1719,232.2969 603.9844,232.3906 C603.5625,232.6563 602.875,232.7813 602.1094,232.7813 C600.0625,232.7813 598.7656,231.6875 598.7656,229.9844 L598.7656,228.8906 C598.7656,227.1094 600.0156,225.7969 601.75,225.7969 C602.3281,225.7969 602.9375,225.9531 603.4063,226.2031 C603.8906,226.4844 604.0625,226.7031 604.1563,227.1094 C604.2188,227.5156 604.25,227.6406 604.3906,227.7656 C604.5313,227.9063 604.7656,228.0156 604.9844,228.0156 C605.25,228.0156 605.5156,227.875 605.6875,227.6563 C605.7969,227.5 605.8281,227.3125 605.8281,226.8906 L605.8281,225.4688 C605.8281,225.0313 605.8125,224.9063 605.7188,224.75 C605.5625,224.4844 605.2813,224.3438 604.9844,224.3438 C604.6875,224.3438 604.4844,224.4375 604.2656,224.75 L604.0938,224.6719 Z " fill="#000000"/><text fill="#000000" font-family="sans-serif" font-size="14" lengthAdjust="spacing" textLength="58" x="622.25" y="233.8467">Carpeta</text><line style="stroke:#181818;stroke-width:0.5;" x1="481.5" x2="788.5" y1="245" y2="245"/><rect fill="none" height="6" style="stroke:#C82930;stroke-width:1.0;" width="6" x="488.5" y="255.6484"/><text fill="#000000" font-family="sans-serif" font-size="14" lengthAdjust="spacing" textLength="108" x="500.5" y="261.9951">nombre: string</text><rect fill="none" height="6" style="stroke:#C82930;stroke-width:1.0;" width="6" x="488.5" y="271.9453"/><text fill="#000000" font-family="sans-serif" font-size="14" lengthAdjust="spacing" textLength="202" x="500.5" y="278.292">_children: List[Component&gt;</text><line style="stroke:#181818;stroke-width:0.5;" x1="481.5" x2="788.5" y1="285.5938" y2="285.5938"/><ellipse cx="491.5" cy="299.2422" fill="#84BE84" rx="3" ry="3" style="stroke:#038048;stroke-width:1.0;"/><text fill="#000000" font-family="sans-serif" font-size="14" lengthAdjust="spacing" textLength="176" x="500.5" y="302.5889">Carpeta(nombre: string)</text><ellipse cx="491.5" cy="315.5391" fill="#84BE84" rx="3" ry="3" style="stroke:#038048;stroke-width:1.0;"/><text fill="#000000" font-family="sans-serif" font-size="14" lengthAdjust="spacing" textLength="254" x="500.5" y="318.8857">add(component: Component): void</text><ellipse cx="491.5" cy="331.8359" fill="#84BE84" rx="3" ry="3" style="stroke:#038048;stroke-width:1.0;"/><text fill="#000000" font-family="sans-serif" font-size="14" lengthAdjust="spacing" textLength="283" x="500.5" y="335.1826">remove(component: Component): void</text><ellipse cx="491.5" cy="348.1328" fill="#84BE84" rx="3" ry="3" style="stroke:#038048;stroke-width:1.0;"/><text fill="#000000" font-family="sans-serif" font-size="14" lengthAdjust="spacing" textLength="146" x="500.5" y="351.4795">is_composite(): bool</text><ellipse cx="491.5" cy="364.4297" fill="#84BE84" rx="3" ry="3" style="stroke:#038048;stroke-width:1.0;"/><text fill="#000000" font-family="sans-serif" font-size="14" lengthAdjust="spacing" textLength="110" x="500.5" y="367.7764">operation(): str</text></g><!--reverse link Component to Leaf--><g id="link_Component_Leaf"><path codeLine="41" d="M452.7896,168.4462 C430.2206,205.5382 413.236,233.449 395.897,261.944 " fill="none" id="Component-backto-Leaf" style="stroke:#181818;stroke-width:1.0;"/><polygon fill="none" points="462.146,153.069,447.6639,165.3274,457.9153,171.565,462.146,153.069" style="stroke:#181818;stroke-width:1.0;"/></g><!--reverse link Leaf to Documentos--><g id="link_Leaf_Documentos"><path codeLine="42" d="M340.8323,340.4336 C317.9333,369.1986 294.525,398.603 265.812,434.672 " fill="none" id="Leaf-backto-Documentos" style="stroke:#181818;stroke-width:1.0;"/><polygon fill="none" points="352.043,326.351,336.1381,336.6967,345.5264,344.1705,352.043,326.351" style="stroke:#181818;stroke-width:1.0;"/></g><!--reverse link Leaf to Links--><g id="link_Leaf_Links"><path codeLine="43" d="M413.365,340.3999 C439.977,373.6239 471.069,412.442 501.818,450.83 " fill="none" id="Leaf-backto-Links" style="stroke:#181818;stroke-width:1.0;"/><polygon fill="none" points="402.112,326.351,408.682,344.1509,418.0479,336.6489,402.112,326.351" style="stroke:#181818;stroke-width:1.0;"/></g><!--reverse link Component to Carpeta--><g id="link_Component_Carpeta"><path codeLine="44" d="M559.2104,168.4462 C570.8964,187.6522 574.238,193.143 586.173,212.757 " fill="none" id="Component-backto-Carpeta" style="stroke:#181818;stroke-width:1.0;"/><polygon fill="none" points="549.854,153.069,554.0846,171.565,564.3361,165.3274,549.854,153.069" style="stroke:#181818;stroke-width:1.0;"/></g><!--SRC=[bL91Si8m3Bpx5JwQQVE13DCBFVA37XZ5CKNJsFBOBXVAtt54m245qXwzsfMqMaCJKm2TfEuWHhaYwyaPb-H1I7c0eNgKBnv2Xkl2k5jNlsYBMku9smaRsbRf2sMM7OoblVc70EE6oH6JKPdI47KJ2daJ826vlfvHSHJYV8ErWItRVy9v9_rjytYApAmSsIOO9g7xx964dcxUOC5b1FFb-jwbWxeLlygnDB-ASF5ygJMwhyi-OCislOfhQWpFD5j1y2R18tiRlSEkpLdNUMnC7zT0tdZSe9vOuv7pqVyjxqSXt_LK_lNofweuOi4vyxDaCGBvObFXuEi4]--></g></svg>