<?xml version="1.0" encoding="us-ascii" standalone="no"?><svg xmlns="http://www.w3.org/2000/svg" xmlns:xlink="http://www.w3.org/1999/xlink" contentStyleType="text/css" height="348px" preserveAspectRatio="none" style="width:504px;height:348px;background:#FFFFFF;" version="1.1" viewBox="0 0 504 348" width="504px" zoomAndPan="magnify"><defs/><g><!--class Subject--><g id="elem_Subject"><rect codeLine="1" fill="#F1F1F1" height="64.2969" id="Subject" rx="2.5" ry="2.5" style="stroke:#181818;stroke-width:0.5;" width="130" x="138" y="7"/><ellipse cx="173.25" cy="23" fill="#A9DCDF" rx="11" ry="11" style="stroke:#181818;stroke-width:1.0;"/><path d="M175.3281,24.8125 L175.7188,25.7969 L175.3281,25.7969 C174.875,25.7969 174.7656,25.8125 174.6094,25.9219 C174.3594,26.0781 174.2031,26.3594 174.2031,26.6563 C174.2031,26.9219 174.3438,27.1719 174.5625,27.3281 C174.7031,27.4531 174.9063,27.5 175.3281,27.5 L177.6875,27.5 C178.0469,27.5 178.2656,27.4688 178.4063,27.375 C178.6563,27.2344 178.8125,26.9375 178.8125,26.6563 C178.8125,26.375 178.6719,26.125 178.4531,25.9688 C178.2813,25.8281 178.125,25.7969 177.6563,25.7969 L174.2656,17.5938 L170.5938,17.5938 C170.1406,17.5938 170.0156,17.6094 169.8594,17.7031 C169.6094,17.875 169.4531,18.1563 169.4531,18.4375 C169.4531,18.7188 169.5938,18.9688 169.8125,19.1406 C169.9844,19.25 170.1563,19.2813 170.5938,19.2813 L171.6719,19.2813 L169.0313,25.7969 C168.6094,25.7969 168.4531,25.8125 168.2969,25.9219 C168.0469,26.0781 167.8906,26.3594 167.8906,26.6563 C167.8906,27.2188 168.2656,27.5 169.0156,27.5 L171.2813,27.5 C171.6406,27.5 171.8594,27.4688 171.9844,27.375 C172.25,27.2344 172.3906,26.9375 172.3906,26.6563 C172.3906,26.375 172.2656,26.125 172.0469,25.9531 C171.875,25.8281 171.7344,25.7969 171.2813,25.7969 L170.8906,25.7969 L171.2813,24.8125 L175.3281,24.8125 Z M174.625,23.1094 L171.9531,23.1094 L173.2969,19.8438 L174.625,23.1094 Z " fill="#000000"/><text fill="#000000" font-family="sans-serif" font-size="14" font-style="italic" lengthAdjust="spacing" textLength="53" x="191.75" y="27.8467">Subject</text><line style="stroke:#181818;stroke-width:0.5;" x1="139" x2="267" y1="39" y2="39"/><line style="stroke:#181818;stroke-width:0.5;" x1="139" x2="267" y1="47" y2="47"/><ellipse cx="149" cy="60.6484" fill="#84BE84" rx="3" ry="3" style="stroke:#038048;stroke-width:1.0;"/><text fill="#000000" font-family="sans-serif" font-size="14" lengthAdjust="spacing" textLength="104" x="158" y="63.9951">request(): void</text></g><!--class RealSubject--><g id="elem_RealSubject"><rect codeLine="5" fill="#F1F1F1" height="64.2969" id="RealSubject" rx="2.5" ry="2.5" style="stroke:#181818;stroke-width:0.5;" width="130" x="7" y="204.5"/><ellipse cx="27.4" cy="220.5" fill="#ADD1B2" rx="11" ry="11" style="stroke:#181818;stroke-width:1.0;"/><path d="M29.7438,216.1719 C28.8063,215.7344 28.2125,215.5938 27.3375,215.5938 C24.7125,215.5938 22.7125,217.6719 22.7125,220.3906 L22.7125,221.5156 C22.7125,224.0938 24.8219,225.9844 27.7125,225.9844 C28.9313,225.9844 30.0875,225.6875 30.8375,225.1406 C31.4156,224.7344 31.7438,224.2813 31.7438,223.8906 C31.7438,223.4375 31.3531,223.0469 30.8844,223.0469 C30.6656,223.0469 30.4625,223.125 30.275,223.3125 C29.8219,223.7969 29.8219,223.7969 29.6344,223.8906 C29.2125,224.1563 28.525,224.2813 27.7594,224.2813 C25.7125,224.2813 24.4156,223.1875 24.4156,221.4844 L24.4156,220.3906 C24.4156,218.6094 25.6656,217.2969 27.4,217.2969 C27.9781,217.2969 28.5875,217.4531 29.0563,217.7031 C29.5406,217.9844 29.7125,218.2031 29.8063,218.6094 C29.8688,219.0156 29.9,219.1406 30.0406,219.2656 C30.1813,219.4063 30.4156,219.5156 30.6344,219.5156 C30.9,219.5156 31.1656,219.375 31.3375,219.1563 C31.4469,219 31.4781,218.8125 31.4781,218.3906 L31.4781,216.9688 C31.4781,216.5313 31.4625,216.4063 31.3688,216.25 C31.2125,215.9844 30.9313,215.8438 30.6344,215.8438 C30.3375,215.8438 30.1344,215.9375 29.9156,216.25 L29.7438,216.1719 Z " fill="#000000"/><text fill="#000000" font-family="sans-serif" font-size="14" lengthAdjust="spacing" textLength="86" x="42.6" y="225.3467">RealSubject</text><line style="stroke:#181818;stroke-width:0.5;" x1="8" x2="136" y1="236.5" y2="236.5"/><line style="stroke:#181818;stroke-width:0.5;" x1="8" x2="136" y1="244.5" y2="244.5"/><ellipse cx="18" cy="258.1484" fill="#84BE84" rx="3" ry="3" style="stroke:#038048;stroke-width:1.0;"/><text fill="#000000" font-family="sans-serif" font-size="14" lengthAdjust="spacing" textLength="104" x="27" y="261.4951">request(): void</text></g><!--class Proxy--><g id="elem_Proxy"><rect codeLine="9" fill="#F1F1F1" height="210.9688" id="Proxy" rx="2.5" ry="2.5" style="stroke:#181818;stroke-width:0.5;" width="325" x="172.5" y="131"/><ellipse cx="310.75" cy="147" fill="#ADD1B2" rx="11" ry="11" style="stroke:#181818;stroke-width:1.0;"/><path d="M313.0938,142.6719 C312.1563,142.2344 311.5625,142.0938 310.6875,142.0938 C308.0625,142.0938 306.0625,144.1719 306.0625,146.8906 L306.0625,148.0156 C306.0625,150.5938 308.1719,152.4844 311.0625,152.4844 C312.2813,152.4844 313.4375,152.1875 314.1875,151.6406 C314.7656,151.2344 315.0938,150.7813 315.0938,150.3906 C315.0938,149.9375 314.7031,149.5469 314.2344,149.5469 C314.0156,149.5469 313.8125,149.625 313.625,149.8125 C313.1719,150.2969 313.1719,150.2969 312.9844,150.3906 C312.5625,150.6563 311.875,150.7813 311.1094,150.7813 C309.0625,150.7813 307.7656,149.6875 307.7656,147.9844 L307.7656,146.8906 C307.7656,145.1094 309.0156,143.7969 310.75,143.7969 C311.3281,143.7969 311.9375,143.9531 312.4063,144.2031 C312.8906,144.4844 313.0625,144.7031 313.1563,145.1094 C313.2188,145.5156 313.25,145.6406 313.3906,145.7656 C313.5313,145.9063 313.7656,146.0156 313.9844,146.0156 C314.25,146.0156 314.5156,145.875 314.6875,145.6563 C314.7969,145.5 314.8281,145.3125 314.8281,144.8906 L314.8281,143.4688 C314.8281,143.0313 314.8125,142.9063 314.7188,142.75 C314.5625,142.4844 314.2813,142.3438 313.9844,142.3438 C313.6875,142.3438 313.4844,142.4375 313.2656,142.75 L313.0938,142.6719 Z " fill="#000000"/><text fill="#000000" font-family="sans-serif" font-size="14" lengthAdjust="spacing" textLength="40" x="331.25" y="151.8467">Proxy</text><line style="stroke:#181818;stroke-width:0.5;" x1="173.5" x2="496.5" y1="163" y2="163"/><rect fill="none" height="6" style="stroke:#C82930;stroke-width:1.0;" width="6" x="180.5" y="173.6484"/><text fill="#000000" font-family="sans-serif" font-size="14" lengthAdjust="spacing" textLength="182" x="192.5" y="179.9951">real_subject: RealSubject</text><rect fill="none" height="6" style="stroke:#C82930;stroke-width:1.0;" width="6" x="180.5" y="189.9453"/><text fill="#000000" font-family="sans-serif" font-size="14" lengthAdjust="spacing" textLength="59" x="192.5" y="196.292">user: str</text><rect fill="none" height="6" style="stroke:#C82930;stroke-width:1.0;" width="6" x="180.5" y="206.2422"/><text fill="#000000" font-family="sans-serif" font-size="14" lengthAdjust="spacing" textLength="202" x="192.5" y="212.5889">usersdb: sqlite3.Connection</text><rect fill="none" height="6" style="stroke:#C82930;stroke-width:1.0;" width="6" x="180.5" y="222.5391"/><text fill="#000000" font-family="sans-serif" font-size="14" lengthAdjust="spacing" textLength="212" x="192.5" y="228.8857">accessdb: sqlite3.Connection</text><line style="stroke:#181818;stroke-width:0.5;" x1="173.5" x2="496.5" y1="236.1875" y2="236.1875"/><ellipse cx="183.5" cy="249.8359" fill="#84BE84" rx="3" ry="3" style="stroke:#038048;stroke-width:1.0;"/><text fill="#000000" font-family="sans-serif" font-size="14" lengthAdjust="spacing" textLength="299" x="192.5" y="253.1826">Proxy(real_subject: RealSubject, user: str)</text><ellipse cx="183.5" cy="266.1328" fill="#84BE84" rx="3" ry="3" style="stroke:#038048;stroke-width:1.0;"/><text fill="#000000" font-family="sans-serif" font-size="14" lengthAdjust="spacing" textLength="106" x="192.5" y="269.4795">request(): bool</text><rect fill="#F24D5C" height="6" style="stroke:#C82930;stroke-width:1.0;" width="6" x="180.5" y="279.4297"/><text fill="#000000" font-family="sans-serif" font-size="14" lengthAdjust="spacing" textLength="131" x="192.5" y="285.7764">check_user(): bool</text><rect fill="#F24D5C" height="6" style="stroke:#C82930;stroke-width:1.0;" width="6" x="180.5" y="295.7266"/><text fill="#000000" font-family="sans-serif" font-size="14" lengthAdjust="spacing" textLength="108" x="192.5" y="302.0732">log_user(): void</text><rect fill="#F24D5C" height="6" style="stroke:#C82930;stroke-width:1.0;" width="6" x="180.5" y="312.0234"/><text fill="#000000" font-family="sans-serif" font-size="14" lengthAdjust="spacing" textLength="130" x="192.5" y="318.3701">log_change(): void</text><rect fill="#F24D5C" height="6" style="stroke:#C82930;stroke-width:1.0;" width="6" x="180.5" y="328.3203"/><text fill="#000000" font-family="sans-serif" font-size="14" lengthAdjust="spacing" textLength="112" x="192.5" y="334.667">log_time(): void</text></g><!--reverse link Subject to RealSubject--><g id="link_Subject_RealSubject"><path codeLine="23" d="M171.9331,86.3633 C147.4141,122.9543 117.182,168.073 92.7788,204.49 " fill="none" id="Subject-backto-RealSubject" style="stroke:#181818;stroke-width:1.0;"/><polygon fill="none" points="181.953,71.41,166.9486,83.0233,176.9175,89.7033,181.953,71.41" style="stroke:#181818;stroke-width:1.0;"/></g><!--reverse link Subject to Proxy--><g id="link_Subject_Proxy"><path codeLine="24" d="M234.28,86.3283 C245.43,102.8433 249.738,109.222 264.422,130.969 " fill="none" id="Subject-backto-Proxy" style="stroke:#181818;stroke-width:1.0;"/><polygon fill="none" points="224.208,71.41,229.3072,89.6856,239.2527,82.971,224.208,71.41" style="stroke:#181818;stroke-width:1.0;"/></g><!--SRC=[ZP113e8m44NtFKMN4CMDE-BE2nWz06dB1Agr3PrYDEhThKD0q92ud3-l_VE_a1YyK84h8n3vePL7YDETSRxW7feMC2HfpYzEb-p9M8VjGPW_qPrtrnj1MOI4AR1xbuy_eMsBu7CUpnacB6KK6gC3h5TRPsr4jREq5qe1pW5q4ZadivxBZs7w7K4wPyX5rQ1EnHkSoCPLWqXnUr7LmbRm8mTzXd4rVNURHvPDUfWiAC0B]--></g></svg>