<?xml version="1.0" encoding="us-ascii" standalone="no"?><svg xmlns="http://www.w3.org/2000/svg" xmlns:xlink="http://www.w3.org/1999/xlink" contentStyleType="text/css" height="554px" preserveAspectRatio="none" style="width:662px;height:554px;background:#FFFFFF;" version="1.1" viewBox="0 0 662 554" width="662px" zoomAndPan="magnify"><defs/><g><!--class Component--><g id="elem_Component"><rect codeLine="1" fill="#F1F1F1" height="129.4844" id="Component" rx="2.5" ry="2.5" style="stroke:#181818;stroke-width:0.5;" width="398" x="45" y="213"/><ellipse cx="198.25" cy="229" fill="#A9DCDF" rx="11" ry="11" style="stroke:#181818;stroke-width:1.0;"/><path d="M200.3281,230.8125 L200.7188,231.7969 L200.3281,231.7969 C199.875,231.7969 199.7656,231.8125 199.6094,231.9219 C199.3594,232.0781 199.2031,232.3594 199.2031,232.6563 C199.2031,232.9219 199.3438,233.1719 199.5625,233.3281 C199.7031,233.4531 199.9063,233.5 200.3281,233.5 L202.6875,233.5 C203.0469,233.5 203.2656,233.4688 203.4063,233.375 C203.6563,233.2344 203.8125,232.9375 203.8125,232.6563 C203.8125,232.375 203.6719,232.125 203.4531,231.9688 C203.2813,231.8281 203.125,231.7969 202.6563,231.7969 L199.2656,223.5938 L195.5938,223.5938 C195.1406,223.5938 195.0156,223.6094 194.8594,223.7031 C194.6094,223.875 194.4531,224.1563 194.4531,224.4375 C194.4531,224.7188 194.5938,224.9688 194.8125,225.1406 C194.9844,225.25 195.1563,225.2813 195.5938,225.2813 L196.6719,225.2813 L194.0313,231.7969 C193.6094,231.7969 193.4531,231.8125 193.2969,231.9219 C193.0469,232.0781 192.8906,232.3594 192.8906,232.6563 C192.8906,233.2188 193.2656,233.5 194.0156,233.5 L196.2813,233.5 C196.6406,233.5 196.8594,233.4688 196.9844,233.375 C197.25,233.2344 197.3906,232.9375 197.3906,232.6563 C197.3906,232.375 197.2656,232.125 197.0469,231.9531 C196.875,231.8281 196.7344,231.7969 196.2813,231.7969 L195.8906,231.7969 L196.2813,230.8125 L200.3281,230.8125 Z M199.625,229.1094 L196.9531,229.1094 L198.2969,225.8438 L199.625,229.1094 Z " fill="#000000"/><text fill="#000000" font-family="sans-serif" font-size="14" font-style="italic" lengthAdjust="spacing" textLength="83" x="218.75" y="233.8467">Component</text><line style="stroke:#181818;stroke-width:0.5;" x1="46" x2="442" y1="245" y2="245"/><ellipse cx="56" cy="258.6484" fill="none" rx="3" ry="3" style="stroke:#038048;stroke-width:1.0;"/><text fill="#000000" font-family="sans-serif" font-size="14" lengthAdjust="spacing" textLength="144" x="65" y="261.9951">parent: Component</text><ellipse cx="56" cy="274.9453" fill="none" rx="3" ry="3" style="stroke:#038048;stroke-width:1.0;"/><text fill="#000000" font-family="sans-serif" font-size="14" lengthAdjust="spacing" textLength="144" x="65" y="278.292">parent: Component</text><line style="stroke:#181818;stroke-width:0.5;" x1="46" x2="442" y1="285.5938" y2="285.5938"/><ellipse cx="56" cy="299.2422" fill="#84BE84" rx="3" ry="3" style="stroke:#038048;stroke-width:1.0;"/><text fill="#000000" font-family="sans-serif" font-size="14" lengthAdjust="spacing" textLength="372" x="65" y="302.5889">a&#241;adir_componente(component: Component): void</text><ellipse cx="56" cy="315.5391" fill="#84BE84" rx="3" ry="3" style="stroke:#038048;stroke-width:1.0;"/><text fill="#000000" font-family="sans-serif" font-size="14" lengthAdjust="spacing" textLength="146" x="65" y="318.8857">is_composite(): bool</text><ellipse cx="56" cy="331.8359" fill="#84BE84" rx="3" ry="3" style="stroke:#038048;stroke-width:1.0;"/><text fill="#000000" font-family="sans-serif" font-size="14" font-style="italic" lengthAdjust="spacing" textLength="106" x="65" y="335.1826">operation(): str</text></g><!--class Leaf--><g id="elem_Leaf"><rect codeLine="9" fill="#F1F1F1" height="80.5938" id="Leaf" rx="2.5" ry="2.5" style="stroke:#181818;stroke-width:0.5;" width="132" x="7" y="434.5"/><ellipse cx="53.25" cy="450.5" fill="#ADD1B2" rx="11" ry="11" style="stroke:#181818;stroke-width:1.0;"/><path d="M55.5938,446.1719 C54.6563,445.7344 54.0625,445.5938 53.1875,445.5938 C50.5625,445.5938 48.5625,447.6719 48.5625,450.3906 L48.5625,451.5156 C48.5625,454.0938 50.6719,455.9844 53.5625,455.9844 C54.7813,455.9844 55.9375,455.6875 56.6875,455.1406 C57.2656,454.7344 57.5938,454.2813 57.5938,453.8906 C57.5938,453.4375 57.2031,453.0469 56.7344,453.0469 C56.5156,453.0469 56.3125,453.125 56.125,453.3125 C55.6719,453.7969 55.6719,453.7969 55.4844,453.8906 C55.0625,454.1563 54.375,454.2813 53.6094,454.2813 C51.5625,454.2813 50.2656,453.1875 50.2656,451.4844 L50.2656,450.3906 C50.2656,448.6094 51.5156,447.2969 53.25,447.2969 C53.8281,447.2969 54.4375,447.4531 54.9063,447.7031 C55.3906,447.9844 55.5625,448.2031 55.6563,448.6094 C55.7188,449.0156 55.75,449.1406 55.8906,449.2656 C56.0313,449.4063 56.2656,449.5156 56.4844,449.5156 C56.75,449.5156 57.0156,449.375 57.1875,449.1563 C57.2969,449 57.3281,448.8125 57.3281,448.3906 L57.3281,446.9688 C57.3281,446.5313 57.3125,446.4063 57.2188,446.25 C57.0625,445.9844 56.7813,445.8438 56.4844,445.8438 C56.1875,445.8438 55.9844,445.9375 55.7656,446.25 L55.5938,446.1719 Z " fill="#000000"/><text fill="#000000" font-family="sans-serif" font-size="14" lengthAdjust="spacing" textLength="31" x="73.75" y="455.3467">Leaf</text><line style="stroke:#181818;stroke-width:0.5;" x1="8" x2="138" y1="466.5" y2="466.5"/><ellipse cx="18" cy="480.1484" fill="none" rx="3" ry="3" style="stroke:#038048;stroke-width:1.0;"/><text fill="#000000" font-family="sans-serif" font-size="14" lengthAdjust="spacing" textLength="89" x="27" y="483.4951">precio: float</text><line style="stroke:#181818;stroke-width:0.5;" x1="8" x2="138" y1="490.7969" y2="490.7969"/><ellipse cx="18" cy="504.4453" fill="#84BE84" rx="3" ry="3" style="stroke:#038048;stroke-width:1.0;"/><text fill="#000000" font-family="sans-serif" font-size="14" font-style="italic" lengthAdjust="spacing" textLength="106" x="27" y="507.792">operation(): str</text></g><!--class Combo--><g id="elem_Combo"><rect codeLine="14" fill="#F1F1F1" height="145.7813" id="Combo" rx="2.5" ry="2.5" style="stroke:#181818;stroke-width:0.5;" width="481" x="174.5" y="402"/><ellipse cx="384.75" cy="418" fill="#ADD1B2" rx="11" ry="11" style="stroke:#181818;stroke-width:1.0;"/><path d="M387.0938,413.6719 C386.1563,413.2344 385.5625,413.0938 384.6875,413.0938 C382.0625,413.0938 380.0625,415.1719 380.0625,417.8906 L380.0625,419.0156 C380.0625,421.5938 382.1719,423.4844 385.0625,423.4844 C386.2813,423.4844 387.4375,423.1875 388.1875,422.6406 C388.7656,422.2344 389.0938,421.7813 389.0938,421.3906 C389.0938,420.9375 388.7031,420.5469 388.2344,420.5469 C388.0156,420.5469 387.8125,420.625 387.625,420.8125 C387.1719,421.2969 387.1719,421.2969 386.9844,421.3906 C386.5625,421.6563 385.875,421.7813 385.1094,421.7813 C383.0625,421.7813 381.7656,420.6875 381.7656,418.9844 L381.7656,417.8906 C381.7656,416.1094 383.0156,414.7969 384.75,414.7969 C385.3281,414.7969 385.9375,414.9531 386.4063,415.2031 C386.8906,415.4844 387.0625,415.7031 387.1563,416.1094 C387.2188,416.5156 387.25,416.6406 387.3906,416.7656 C387.5313,416.9063 387.7656,417.0156 387.9844,417.0156 C388.25,417.0156 388.5156,416.875 388.6875,416.6563 C388.7969,416.5 388.8281,416.3125 388.8281,415.8906 L388.8281,414.4688 C388.8281,414.0313 388.8125,413.9063 388.7188,413.75 C388.5625,413.4844 388.2813,413.3438 387.9844,413.3438 C387.6875,413.3438 387.4844,413.4375 387.2656,413.75 L387.0938,413.6719 Z " fill="#000000"/><text fill="#000000" font-family="sans-serif" font-size="14" lengthAdjust="spacing" textLength="52" x="405.25" y="422.8467">Combo</text><line style="stroke:#181818;stroke-width:0.5;" x1="175.5" x2="654.5" y1="434" y2="434"/><ellipse cx="185.5" cy="447.6484" fill="none" rx="3" ry="3" style="stroke:#038048;stroke-width:1.0;"/><text fill="#000000" font-family="sans-serif" font-size="14" lengthAdjust="spacing" textLength="196" x="194.5" y="450.9951">_children: List[Component]</text><line style="stroke:#181818;stroke-width:0.5;" x1="175.5" x2="654.5" y1="458.2969" y2="458.2969"/><text fill="#000000" font-family="sans-serif" font-size="14" lengthAdjust="spacing" textLength="198" x="180.5" y="475.292">{override} + __init__(): void</text><text fill="#000000" font-family="sans-serif" font-size="14" lengthAdjust="spacing" textLength="469" x="180.5" y="491.5889">{override} + a&#241;adir_componente(component: Component): void</text><text fill="#000000" font-family="sans-serif" font-size="14" lengthAdjust="spacing" textLength="243" x="180.5" y="507.8857">{override} + is_composite(): bool</text><text fill="#000000" font-family="sans-serif" font-size="14" lengthAdjust="spacing" textLength="213" x="180.5" y="524.1826">{override} + elementos(): str</text><text fill="#000000" font-family="sans-serif" font-size="14" lengthAdjust="spacing" textLength="207" x="180.5" y="540.4795">{override} + operation(): int</text></g><!--class DirectorMenus--><g id="elem_DirectorMenus"><rect codeLine="23" fill="#F1F1F1" height="145.7813" id="DirectorMenus" rx="2.5" ry="2.5" style="stroke:#181818;stroke-width:0.5;" width="253" x="117.5" y="7"/><ellipse cx="187.25" cy="23" fill="#ADD1B2" rx="11" ry="11" style="stroke:#181818;stroke-width:1.0;"/><path d="M189.5938,18.6719 C188.6563,18.2344 188.0625,18.0938 187.1875,18.0938 C184.5625,18.0938 182.5625,20.1719 182.5625,22.8906 L182.5625,24.0156 C182.5625,26.5938 184.6719,28.4844 187.5625,28.4844 C188.7813,28.4844 189.9375,28.1875 190.6875,27.6406 C191.2656,27.2344 191.5938,26.7813 191.5938,26.3906 C191.5938,25.9375 191.2031,25.5469 190.7344,25.5469 C190.5156,25.5469 190.3125,25.625 190.125,25.8125 C189.6719,26.2969 189.6719,26.2969 189.4844,26.3906 C189.0625,26.6563 188.375,26.7813 187.6094,26.7813 C185.5625,26.7813 184.2656,25.6875 184.2656,23.9844 L184.2656,22.8906 C184.2656,21.1094 185.5156,19.7969 187.25,19.7969 C187.8281,19.7969 188.4375,19.9531 188.9063,20.2031 C189.3906,20.4844 189.5625,20.7031 189.6563,21.1094 C189.7188,21.5156 189.75,21.6406 189.8906,21.7656 C190.0313,21.9063 190.2656,22.0156 190.4844,22.0156 C190.75,22.0156 191.0156,21.875 191.1875,21.6563 C191.2969,21.5 191.3281,21.3125 191.3281,20.8906 L191.3281,19.4688 C191.3281,19.0313 191.3125,18.9063 191.2188,18.75 C191.0625,18.4844 190.7813,18.3438 190.4844,18.3438 C190.1875,18.3438 189.9844,18.4375 189.7656,18.75 L189.5938,18.6719 Z " fill="#000000"/><text fill="#000000" font-family="sans-serif" font-size="14" lengthAdjust="spacing" textLength="105" x="207.75" y="27.8467">DirectorMenus</text><line style="stroke:#181818;stroke-width:0.5;" x1="118.5" x2="369.5" y1="39" y2="39"/><ellipse cx="128.5" cy="52.6484" fill="none" rx="3" ry="3" style="stroke:#038048;stroke-width:1.0;"/><text fill="#000000" font-family="sans-serif" font-size="14" lengthAdjust="spacing" textLength="116" x="137.5" y="55.9951">_builder: Builder</text><ellipse cx="128.5" cy="68.9453" fill="none" rx="3" ry="3" style="stroke:#038048;stroke-width:1.0;"/><text fill="#000000" font-family="sans-serif" font-size="14" lengthAdjust="spacing" textLength="109" x="137.5" y="72.292">builder: Builder</text><ellipse cx="128.5" cy="85.2422" fill="none" rx="3" ry="3" style="stroke:#038048;stroke-width:1.0;"/><text fill="#000000" font-family="sans-serif" font-size="14" lengthAdjust="spacing" textLength="109" x="137.5" y="88.5889">builder: Builder</text><line style="stroke:#181818;stroke-width:0.5;" x1="118.5" x2="369.5" y1="95.8906" y2="95.8906"/><text fill="#000000" font-family="sans-serif" font-size="14" lengthAdjust="spacing" textLength="198" x="123.5" y="112.8857">{override} + __init__(): void</text><text fill="#000000" font-family="sans-serif" font-size="14" lengthAdjust="spacing" textLength="241" x="123.5" y="129.1826">{override} + menu_simple(): void</text><text fill="#000000" font-family="sans-serif" font-size="14" lengthAdjust="spacing" textLength="238" x="123.5" y="145.4795">{override} + menu_pareja(): void</text></g><!--reverse link Component to Combo--><g id="link_Component_Combo"><path codeLine="32" d="M311.6052,355.7919 C328.2712,374.8469 334.81,382.321 351.912,401.873 " fill="none" id="Component-backto-Combo" style="stroke:#181818;stroke-width:1.0;"/><polygon fill="none" points="299.755,342.243,307.0889,359.742,316.1215,351.8418,299.755,342.243" style="stroke:#181818;stroke-width:1.0;"/></g><!--reverse link Component to Leaf--><g id="link_Component_Leaf"><path codeLine="33" d="M176.3945,355.7917 C149.8845,386.1007 130.867,407.843 107.753,434.268 " fill="none" id="Component-backto-Leaf" style="stroke:#181818;stroke-width:1.0;"/><polygon fill="none" points="188.245,342.243,171.8783,351.8415,180.9108,359.7418,188.245,342.243" style="stroke:#181818;stroke-width:1.0;"/></g><!--link DirectorMenus to Component--><g id="link_DirectorMenus_Component"><path codeLine="34" d="M244,153.242 C244,172.82 244,187.867 244,206.93 " fill="none" id="DirectorMenus-to-Component" style="stroke:#181818;stroke-width:1.0;"/><polygon fill="#181818" points="244,212.93,248,203.93,244,207.93,240,203.93,244,212.93" style="stroke:#181818;stroke-width:1.0;"/></g><!--SRC=[bL91JiD03Bpd5JuMLVb0X3W0n_82LAsSn1L6cpZQtVHIyYZUmCVmDjsagLfKRhlZyMZ6DfO-EAm2L1QzXnTfEccf3N380DRGeTDFCUD_eFZpZJKxKoMKLjFpZFjGm5wuFhQm7zcUbQo5KiHguO0dLuDof2E7WQMD18Mp8Sj6inl2NVBfg68fO6S5m_qAQggKauIfFjZM6go03VlmFXdUHZtPatDSKzGpXbiEngpcA8lwlmUnwBuratCEMMfKGNnAT55V96RTpm0fyYlhg8AuDsfxdwANlKOdLy3p-BWZyHgkD5q55qfgkpUUcyxIhV4TAV74Fd6YwCRcqtpyolDnTPTWl8XicJ3Fd-QH_m80]--></g></svg>