<?xml version="1.0" encoding="us-ascii" standalone="no"?><svg xmlns="http://www.w3.org/2000/svg" xmlns:xlink="http://www.w3.org/1999/xlink" contentStyleType="text/css" height="810px" preserveAspectRatio="none" style="width:1638px;height:810px;background:#FFFFFF;" version="1.1" viewBox="0 0 1638 810" width="1638px" zoomAndPan="magnify"><defs/><g><!--class Component--><g id="elem_Component"><rect codeLine="1" fill="#F1F1F1" height="129.4844" id="Component" rx="2.5" ry="2.5" style="stroke:#181818;stroke-width:0.5;" width="391" x="970.5" y="40"/><ellipse cx="1120.25" cy="56" fill="#A9DCDF" rx="11" ry="11" style="stroke:#181818;stroke-width:1.0;"/><path d="M1122.3281,57.8125 L1122.7188,58.7969 L1122.3281,58.7969 C1121.875,58.7969 1121.7656,58.8125 1121.6094,58.9219 C1121.3594,59.0781 1121.2031,59.3594 1121.2031,59.6563 C1121.2031,59.9219 1121.3438,60.1719 1121.5625,60.3281 C1121.7031,60.4531 1121.9063,60.5 1122.3281,60.5 L1124.6875,60.5 C1125.0469,60.5 1125.2656,60.4688 1125.4063,60.375 C1125.6563,60.2344 1125.8125,59.9375 1125.8125,59.6563 C1125.8125,59.375 1125.6719,59.125 1125.4531,58.9688 C1125.2813,58.8281 1125.125,58.7969 1124.6563,58.7969 L1121.2656,50.5938 L1117.5938,50.5938 C1117.1406,50.5938 1117.0156,50.6094 1116.8594,50.7031 C1116.6094,50.875 1116.4531,51.1563 1116.4531,51.4375 C1116.4531,51.7188 1116.5938,51.9688 1116.8125,52.1406 C1116.9844,52.25 1117.1563,52.2813 1117.5938,52.2813 L1118.6719,52.2813 L1116.0313,58.7969 C1115.6094,58.7969 1115.4531,58.8125 1115.2969,58.9219 C1115.0469,59.0781 1114.8906,59.3594 1114.8906,59.6563 C1114.8906,60.2188 1115.2656,60.5 1116.0156,60.5 L1118.2813,60.5 C1118.6406,60.5 1118.8594,60.4688 1118.9844,60.375 C1119.25,60.2344 1119.3906,59.9375 1119.3906,59.6563 C1119.3906,59.375 1119.2656,59.125 1119.0469,58.9531 C1118.875,58.8281 1118.7344,58.7969 1118.2813,58.7969 L1117.8906,58.7969 L1118.2813,57.8125 L1122.3281,57.8125 Z M1121.625,56.1094 L1118.9531,56.1094 L1120.2969,52.8438 L1121.625,56.1094 Z " fill="#000000"/><text fill="#000000" font-family="sans-serif" font-size="14" font-style="italic" lengthAdjust="spacing" textLength="83" x="1140.75" y="60.8467">Component</text><line style="stroke:#181818;stroke-width:0.5;" x1="971.5" x2="1360.5" y1="72" y2="72"/><ellipse cx="981.5" cy="85.6484" fill="none" rx="3" ry="3" style="stroke:#038048;stroke-width:1.0;"/><text fill="#000000" font-family="sans-serif" font-size="14" font-style="italic" lengthAdjust="spacing" textLength="139" x="990.5" y="88.9951">parent: Component</text><line style="stroke:#181818;stroke-width:0.5;" x1="971.5" x2="1360.5" y1="96.2969" y2="96.2969"/><ellipse cx="981.5" cy="109.9453" fill="#84BE84" rx="3" ry="3" style="stroke:#038048;stroke-width:1.0;"/><text fill="#000000" font-family="sans-serif" font-size="14" font-style="italic" lengthAdjust="spacing" textLength="235" x="990.5" y="113.292">parent(parent: Component): void</text><ellipse cx="981.5" cy="126.2422" fill="#84BE84" rx="3" ry="3" style="stroke:#038048;stroke-width:1.0;"/><text fill="#000000" font-family="sans-serif" font-size="14" font-style="italic" lengthAdjust="spacing" textLength="365" x="990.5" y="129.5889">a&#241;adir_componente(component: Component): void</text><ellipse cx="981.5" cy="142.5391" fill="#84BE84" rx="3" ry="3" style="stroke:#038048;stroke-width:1.0;"/><text fill="#000000" font-family="sans-serif" font-size="14" font-style="italic" lengthAdjust="spacing" textLength="142" x="990.5" y="145.8857">is_composite(): bool</text><ellipse cx="981.5" cy="158.8359" fill="#84BE84" rx="3" ry="3" style="stroke:#038048;stroke-width:1.0;"/><text fill="#000000" font-family="sans-serif" font-size="14" font-style="italic" lengthAdjust="spacing" textLength="106" x="990.5" y="162.1826">operation(): str</text></g><!--class Leaf--><g id="elem_Leaf"><rect codeLine="9" fill="#F1F1F1" height="64.2969" id="Leaf" rx="2.5" ry="2.5" style="stroke:#181818;stroke-width:0.5;" width="136" x="947" y="303"/><ellipse cx="995.25" cy="319" fill="#ADD1B2" rx="11" ry="11" style="stroke:#181818;stroke-width:1.0;"/><path d="M997.5938,314.6719 C996.6563,314.2344 996.0625,314.0938 995.1875,314.0938 C992.5625,314.0938 990.5625,316.1719 990.5625,318.8906 L990.5625,320.0156 C990.5625,322.5938 992.6719,324.4844 995.5625,324.4844 C996.7813,324.4844 997.9375,324.1875 998.6875,323.6406 C999.2656,323.2344 999.5938,322.7813 999.5938,322.3906 C999.5938,321.9375 999.2031,321.5469 998.7344,321.5469 C998.5156,321.5469 998.3125,321.625 998.125,321.8125 C997.6719,322.2969 997.6719,322.2969 997.4844,322.3906 C997.0625,322.6563 996.375,322.7813 995.6094,322.7813 C993.5625,322.7813 992.2656,321.6875 992.2656,319.9844 L992.2656,318.8906 C992.2656,317.1094 993.5156,315.7969 995.25,315.7969 C995.8281,315.7969 996.4375,315.9531 996.9063,316.2031 C997.3906,316.4844 997.5625,316.7031 997.6563,317.1094 C997.7188,317.5156 997.75,317.6406 997.8906,317.7656 C998.0313,317.9063 998.2656,318.0156 998.4844,318.0156 C998.75,318.0156 999.0156,317.875 999.1875,317.6563 C999.2969,317.5 999.3281,317.3125 999.3281,316.8906 L999.3281,315.4688 C999.3281,315.0313 999.3125,314.9063 999.2188,314.75 C999.0625,314.4844 998.7813,314.3438 998.4844,314.3438 C998.1875,314.3438 997.9844,314.4375 997.7656,314.75 L997.5938,314.6719 Z " fill="#000000"/><text fill="#000000" font-family="sans-serif" font-size="14" lengthAdjust="spacing" textLength="31" x="1015.75" y="323.8467">Leaf</text><line style="stroke:#181818;stroke-width:0.5;" x1="948" x2="1082" y1="335" y2="335"/><line style="stroke:#181818;stroke-width:0.5;" x1="948" x2="1082" y1="343" y2="343"/><ellipse cx="958" cy="356.6484" fill="#84BE84" rx="3" ry="3" style="stroke:#038048;stroke-width:1.0;"/><text fill="#000000" font-family="sans-serif" font-size="14" lengthAdjust="spacing" textLength="110" x="967" y="359.9951">operation(): str</text></g><!--class Bebidas--><g id="elem_Bebidas"><rect codeLine="13" fill="#F1F1F1" height="64.2969" id="Bebidas" rx="2.5" ry="2.5" style="stroke:#181818;stroke-width:0.5;" width="136" x="264" y="541.5"/><ellipse cx="300.15" cy="557.5" fill="#ADD1B2" rx="11" ry="11" style="stroke:#181818;stroke-width:1.0;"/><path d="M302.4938,553.1719 C301.5563,552.7344 300.9625,552.5938 300.0875,552.5938 C297.4625,552.5938 295.4625,554.6719 295.4625,557.3906 L295.4625,558.5156 C295.4625,561.0938 297.5719,562.9844 300.4625,562.9844 C301.6813,562.9844 302.8375,562.6875 303.5875,562.1406 C304.1656,561.7344 304.4938,561.2813 304.4938,560.8906 C304.4938,560.4375 304.1031,560.0469 303.6344,560.0469 C303.4156,560.0469 303.2125,560.125 303.025,560.3125 C302.5719,560.7969 302.5719,560.7969 302.3844,560.8906 C301.9625,561.1563 301.275,561.2813 300.5094,561.2813 C298.4625,561.2813 297.1656,560.1875 297.1656,558.4844 L297.1656,557.3906 C297.1656,555.6094 298.4156,554.2969 300.15,554.2969 C300.7281,554.2969 301.3375,554.4531 301.8063,554.7031 C302.2906,554.9844 302.4625,555.2031 302.5563,555.6094 C302.6188,556.0156 302.65,556.1406 302.7906,556.2656 C302.9313,556.4063 303.1656,556.5156 303.3844,556.5156 C303.65,556.5156 303.9156,556.375 304.0875,556.1563 C304.1969,556 304.2281,555.8125 304.2281,555.3906 L304.2281,553.9688 C304.2281,553.5313 304.2125,553.4063 304.1188,553.25 C303.9625,552.9844 303.6813,552.8438 303.3844,552.8438 C303.0875,552.8438 302.8844,552.9375 302.6656,553.25 L302.4938,553.1719 Z " fill="#000000"/><text fill="#000000" font-family="sans-serif" font-size="14" lengthAdjust="spacing" textLength="57" x="318.85" y="562.3467">Bebidas</text><line style="stroke:#181818;stroke-width:0.5;" x1="265" x2="399" y1="573.5" y2="573.5"/><line style="stroke:#181818;stroke-width:0.5;" x1="265" x2="399" y1="581.5" y2="581.5"/><ellipse cx="275" cy="595.1484" fill="#84BE84" rx="3" ry="3" style="stroke:#038048;stroke-width:1.0;"/><text fill="#000000" font-family="sans-serif" font-size="14" lengthAdjust="spacing" textLength="110" x="284" y="598.4951">operation(): str</text></g><!--class Agua--><g id="elem_Agua"><rect codeLine="17" fill="#F1F1F1" height="64.2969" id="Agua" rx="2.5" ry="2.5" style="stroke:#181818;stroke-width:0.5;" width="136" x="7" y="739"/><ellipse cx="53.25" cy="755" fill="#ADD1B2" rx="11" ry="11" style="stroke:#181818;stroke-width:1.0;"/><path d="M55.5938,750.6719 C54.6563,750.2344 54.0625,750.0938 53.1875,750.0938 C50.5625,750.0938 48.5625,752.1719 48.5625,754.8906 L48.5625,756.0156 C48.5625,758.5938 50.6719,760.4844 53.5625,760.4844 C54.7813,760.4844 55.9375,760.1875 56.6875,759.6406 C57.2656,759.2344 57.5938,758.7813 57.5938,758.3906 C57.5938,757.9375 57.2031,757.5469 56.7344,757.5469 C56.5156,757.5469 56.3125,757.625 56.125,757.8125 C55.6719,758.2969 55.6719,758.2969 55.4844,758.3906 C55.0625,758.6563 54.375,758.7813 53.6094,758.7813 C51.5625,758.7813 50.2656,757.6875 50.2656,755.9844 L50.2656,754.8906 C50.2656,753.1094 51.5156,751.7969 53.25,751.7969 C53.8281,751.7969 54.4375,751.9531 54.9063,752.2031 C55.3906,752.4844 55.5625,752.7031 55.6563,753.1094 C55.7188,753.5156 55.75,753.6406 55.8906,753.7656 C56.0313,753.9063 56.2656,754.0156 56.4844,754.0156 C56.75,754.0156 57.0156,753.875 57.1875,753.6563 C57.2969,753.5 57.3281,753.3125 57.3281,752.8906 L57.3281,751.4688 C57.3281,751.0313 57.3125,750.9063 57.2188,750.75 C57.0625,750.4844 56.7813,750.3438 56.4844,750.3438 C56.1875,750.3438 55.9844,750.4375 55.7656,750.75 L55.5938,750.6719 Z " fill="#000000"/><text fill="#000000" font-family="sans-serif" font-size="14" lengthAdjust="spacing" textLength="35" x="73.75" y="759.8467">Agua</text><line style="stroke:#181818;stroke-width:0.5;" x1="8" x2="142" y1="771" y2="771"/><line style="stroke:#181818;stroke-width:0.5;" x1="8" x2="142" y1="779" y2="779"/><ellipse cx="18" cy="792.6484" fill="#84BE84" rx="3" ry="3" style="stroke:#038048;stroke-width:1.0;"/><text fill="#000000" font-family="sans-serif" font-size="14" lengthAdjust="spacing" textLength="110" x="27" y="795.9951">operation(): str</text></g><!--class Refresco--><g id="elem_Refresco"><rect codeLine="21" fill="#F1F1F1" height="64.2969" id="Refresco" rx="2.5" ry="2.5" style="stroke:#181818;stroke-width:0.5;" width="136" x="178" y="739"/><ellipse cx="211" cy="755" fill="#ADD1B2" rx="11" ry="11" style="stroke:#181818;stroke-width:1.0;"/><path d="M213.3438,750.6719 C212.4063,750.2344 211.8125,750.0938 210.9375,750.0938 C208.3125,750.0938 206.3125,752.1719 206.3125,754.8906 L206.3125,756.0156 C206.3125,758.5938 208.4219,760.4844 211.3125,760.4844 C212.5313,760.4844 213.6875,760.1875 214.4375,759.6406 C215.0156,759.2344 215.3438,758.7813 215.3438,758.3906 C215.3438,757.9375 214.9531,757.5469 214.4844,757.5469 C214.2656,757.5469 214.0625,757.625 213.875,757.8125 C213.4219,758.2969 213.4219,758.2969 213.2344,758.3906 C212.8125,758.6563 212.125,758.7813 211.3594,758.7813 C209.3125,758.7813 208.0156,757.6875 208.0156,755.9844 L208.0156,754.8906 C208.0156,753.1094 209.2656,751.7969 211,751.7969 C211.5781,751.7969 212.1875,751.9531 212.6563,752.2031 C213.1406,752.4844 213.3125,752.7031 213.4063,753.1094 C213.4688,753.5156 213.5,753.6406 213.6406,753.7656 C213.7813,753.9063 214.0156,754.0156 214.2344,754.0156 C214.5,754.0156 214.7656,753.875 214.9375,753.6563 C215.0469,753.5 215.0781,753.3125 215.0781,752.8906 L215.0781,751.4688 C215.0781,751.0313 215.0625,750.9063 214.9688,750.75 C214.8125,750.4844 214.5313,750.3438 214.2344,750.3438 C213.9375,750.3438 213.7344,750.4375 213.5156,750.75 L213.3438,750.6719 Z " fill="#000000"/><text fill="#000000" font-family="sans-serif" font-size="14" lengthAdjust="spacing" textLength="64" x="229" y="759.8467">Refresco</text><line style="stroke:#181818;stroke-width:0.5;" x1="179" x2="313" y1="771" y2="771"/><line style="stroke:#181818;stroke-width:0.5;" x1="179" x2="313" y1="779" y2="779"/><ellipse cx="189" cy="792.6484" fill="#84BE84" rx="3" ry="3" style="stroke:#038048;stroke-width:1.0;"/><text fill="#000000" font-family="sans-serif" font-size="14" lengthAdjust="spacing" textLength="110" x="198" y="795.9951">operation(): str</text></g><!--class Cerveza--><g id="elem_Cerveza"><rect codeLine="25" fill="#F1F1F1" height="64.2969" id="Cerveza" rx="2.5" ry="2.5" style="stroke:#181818;stroke-width:0.5;" width="136" x="349" y="739"/><ellipse cx="384.7" cy="755" fill="#ADD1B2" rx="11" ry="11" style="stroke:#181818;stroke-width:1.0;"/><path d="M387.0438,750.6719 C386.1063,750.2344 385.5125,750.0938 384.6375,750.0938 C382.0125,750.0938 380.0125,752.1719 380.0125,754.8906 L380.0125,756.0156 C380.0125,758.5938 382.1219,760.4844 385.0125,760.4844 C386.2313,760.4844 387.3875,760.1875 388.1375,759.6406 C388.7156,759.2344 389.0438,758.7813 389.0438,758.3906 C389.0438,757.9375 388.6531,757.5469 388.1844,757.5469 C387.9656,757.5469 387.7625,757.625 387.575,757.8125 C387.1219,758.2969 387.1219,758.2969 386.9344,758.3906 C386.5125,758.6563 385.825,758.7813 385.0594,758.7813 C383.0125,758.7813 381.7156,757.6875 381.7156,755.9844 L381.7156,754.8906 C381.7156,753.1094 382.9656,751.7969 384.7,751.7969 C385.2781,751.7969 385.8875,751.9531 386.3563,752.2031 C386.8406,752.4844 387.0125,752.7031 387.1063,753.1094 C387.1688,753.5156 387.2,753.6406 387.3406,753.7656 C387.4813,753.9063 387.7156,754.0156 387.9344,754.0156 C388.2,754.0156 388.4656,753.875 388.6375,753.6563 C388.7469,753.5 388.7781,753.3125 388.7781,752.8906 L388.7781,751.4688 C388.7781,751.0313 388.7625,750.9063 388.6688,750.75 C388.5125,750.4844 388.2313,750.3438 387.9344,750.3438 C387.6375,750.3438 387.4344,750.4375 387.2156,750.75 L387.0438,750.6719 Z " fill="#000000"/><text fill="#000000" font-family="sans-serif" font-size="14" lengthAdjust="spacing" textLength="58" x="403.3" y="759.8467">Cerveza</text><line style="stroke:#181818;stroke-width:0.5;" x1="350" x2="484" y1="771" y2="771"/><line style="stroke:#181818;stroke-width:0.5;" x1="350" x2="484" y1="779" y2="779"/><ellipse cx="360" cy="792.6484" fill="#84BE84" rx="3" ry="3" style="stroke:#038048;stroke-width:1.0;"/><text fill="#000000" font-family="sans-serif" font-size="14" lengthAdjust="spacing" textLength="110" x="369" y="795.9951">operation(): str</text></g><!--class Entrantes--><g id="elem_Entrantes"><rect codeLine="29" fill="#F1F1F1" height="64.2969" id="Entrantes" rx="2.5" ry="2.5" style="stroke:#181818;stroke-width:0.5;" width="136" x="776" y="541.5"/><ellipse cx="805.85" cy="557.5" fill="#ADD1B2" rx="11" ry="11" style="stroke:#181818;stroke-width:1.0;"/><path d="M808.1938,553.1719 C807.2563,552.7344 806.6625,552.5938 805.7875,552.5938 C803.1625,552.5938 801.1625,554.6719 801.1625,557.3906 L801.1625,558.5156 C801.1625,561.0938 803.2719,562.9844 806.1625,562.9844 C807.3813,562.9844 808.5375,562.6875 809.2875,562.1406 C809.8656,561.7344 810.1938,561.2813 810.1938,560.8906 C810.1938,560.4375 809.8031,560.0469 809.3344,560.0469 C809.1156,560.0469 808.9125,560.125 808.725,560.3125 C808.2719,560.7969 808.2719,560.7969 808.0844,560.8906 C807.6625,561.1563 806.975,561.2813 806.2094,561.2813 C804.1625,561.2813 802.8656,560.1875 802.8656,558.4844 L802.8656,557.3906 C802.8656,555.6094 804.1156,554.2969 805.85,554.2969 C806.4281,554.2969 807.0375,554.4531 807.5063,554.7031 C807.9906,554.9844 808.1625,555.2031 808.2563,555.6094 C808.3188,556.0156 808.35,556.1406 808.4906,556.2656 C808.6313,556.4063 808.8656,556.5156 809.0844,556.5156 C809.35,556.5156 809.6156,556.375 809.7875,556.1563 C809.8969,556 809.9281,555.8125 809.9281,555.3906 L809.9281,553.9688 C809.9281,553.5313 809.9125,553.4063 809.8188,553.25 C809.6625,552.9844 809.3813,552.8438 809.0844,552.8438 C808.7875,552.8438 808.5844,552.9375 808.3656,553.25 L808.1938,553.1719 Z " fill="#000000"/><text fill="#000000" font-family="sans-serif" font-size="14" lengthAdjust="spacing" textLength="71" x="823.15" y="562.3467">Entrantes</text><line style="stroke:#181818;stroke-width:0.5;" x1="777" x2="911" y1="573.5" y2="573.5"/><line style="stroke:#181818;stroke-width:0.5;" x1="777" x2="911" y1="581.5" y2="581.5"/><ellipse cx="787" cy="595.1484" fill="#84BE84" rx="3" ry="3" style="stroke:#038048;stroke-width:1.0;"/><text fill="#000000" font-family="sans-serif" font-size="14" lengthAdjust="spacing" textLength="110" x="796" y="598.4951">operation(): str</text></g><!--class Nachos--><g id="elem_Nachos"><rect codeLine="33" fill="#F1F1F1" height="64.2969" id="Nachos" rx="2.5" ry="2.5" style="stroke:#181818;stroke-width:0.5;" width="136" x="520" y="739"/><ellipse cx="558.85" cy="755" fill="#ADD1B2" rx="11" ry="11" style="stroke:#181818;stroke-width:1.0;"/><path d="M561.1938,750.6719 C560.2563,750.2344 559.6625,750.0938 558.7875,750.0938 C556.1625,750.0938 554.1625,752.1719 554.1625,754.8906 L554.1625,756.0156 C554.1625,758.5938 556.2719,760.4844 559.1625,760.4844 C560.3813,760.4844 561.5375,760.1875 562.2875,759.6406 C562.8656,759.2344 563.1938,758.7813 563.1938,758.3906 C563.1938,757.9375 562.8031,757.5469 562.3344,757.5469 C562.1156,757.5469 561.9125,757.625 561.725,757.8125 C561.2719,758.2969 561.2719,758.2969 561.0844,758.3906 C560.6625,758.6563 559.975,758.7813 559.2094,758.7813 C557.1625,758.7813 555.8656,757.6875 555.8656,755.9844 L555.8656,754.8906 C555.8656,753.1094 557.1156,751.7969 558.85,751.7969 C559.4281,751.7969 560.0375,751.9531 560.5063,752.2031 C560.9906,752.4844 561.1625,752.7031 561.2563,753.1094 C561.3188,753.5156 561.35,753.6406 561.4906,753.7656 C561.6313,753.9063 561.8656,754.0156 562.0844,754.0156 C562.35,754.0156 562.6156,753.875 562.7875,753.6563 C562.8969,753.5 562.9281,753.3125 562.9281,752.8906 L562.9281,751.4688 C562.9281,751.0313 562.9125,750.9063 562.8188,750.75 C562.6625,750.4844 562.3813,750.3438 562.0844,750.3438 C561.7875,750.3438 561.5844,750.4375 561.3656,750.75 L561.1938,750.6719 Z " fill="#000000"/><text fill="#000000" font-family="sans-serif" font-size="14" lengthAdjust="spacing" textLength="51" x="578.15" y="759.8467">Nachos</text><line style="stroke:#181818;stroke-width:0.5;" x1="521" x2="655" y1="771" y2="771"/><line style="stroke:#181818;stroke-width:0.5;" x1="521" x2="655" y1="779" y2="779"/><ellipse cx="531" cy="792.6484" fill="#84BE84" rx="3" ry="3" style="stroke:#038048;stroke-width:1.0;"/><text fill="#000000" font-family="sans-serif" font-size="14" lengthAdjust="spacing" textLength="110" x="540" y="795.9951">operation(): str</text></g><!--class Alitas--><g id="elem_Alitas"><rect codeLine="37" fill="#F1F1F1" height="64.2969" id="Alitas" rx="2.5" ry="2.5" style="stroke:#181818;stroke-width:0.5;" width="136" x="691" y="739"/><ellipse cx="734.8" cy="755" fill="#ADD1B2" rx="11" ry="11" style="stroke:#181818;stroke-width:1.0;"/><path d="M737.1438,750.6719 C736.2063,750.2344 735.6125,750.0938 734.7375,750.0938 C732.1125,750.0938 730.1125,752.1719 730.1125,754.8906 L730.1125,756.0156 C730.1125,758.5938 732.2219,760.4844 735.1125,760.4844 C736.3313,760.4844 737.4875,760.1875 738.2375,759.6406 C738.8156,759.2344 739.1438,758.7813 739.1438,758.3906 C739.1438,757.9375 738.7531,757.5469 738.2844,757.5469 C738.0656,757.5469 737.8625,757.625 737.675,757.8125 C737.2219,758.2969 737.2219,758.2969 737.0344,758.3906 C736.6125,758.6563 735.925,758.7813 735.1594,758.7813 C733.1125,758.7813 731.8156,757.6875 731.8156,755.9844 L731.8156,754.8906 C731.8156,753.1094 733.0656,751.7969 734.8,751.7969 C735.3781,751.7969 735.9875,751.9531 736.4563,752.2031 C736.9406,752.4844 737.1125,752.7031 737.2063,753.1094 C737.2688,753.5156 737.3,753.6406 737.4406,753.7656 C737.5813,753.9063 737.8156,754.0156 738.0344,754.0156 C738.3,754.0156 738.5656,753.875 738.7375,753.6563 C738.8469,753.5 738.8781,753.3125 738.8781,752.8906 L738.8781,751.4688 C738.8781,751.0313 738.8625,750.9063 738.7688,750.75 C738.6125,750.4844 738.3313,750.3438 738.0344,750.3438 C737.7375,750.3438 737.5344,750.4375 737.3156,750.75 L737.1438,750.6719 Z " fill="#000000"/><text fill="#000000" font-family="sans-serif" font-size="14" lengthAdjust="spacing" textLength="40" x="755.2" y="759.8467">Alitas</text><line style="stroke:#181818;stroke-width:0.5;" x1="692" x2="826" y1="771" y2="771"/><line style="stroke:#181818;stroke-width:0.5;" x1="692" x2="826" y1="779" y2="779"/><ellipse cx="702" cy="792.6484" fill="#84BE84" rx="3" ry="3" style="stroke:#038048;stroke-width:1.0;"/><text fill="#000000" font-family="sans-serif" font-size="14" lengthAdjust="spacing" textLength="110" x="711" y="795.9951">operation(): str</text></g><!--class Aroscebolla--><g id="elem_Aroscebolla"><rect codeLine="41" fill="#F1F1F1" height="64.2969" id="Aroscebolla" rx="2.5" ry="2.5" style="stroke:#181818;stroke-width:0.5;" width="136" x="862" y="739"/><ellipse cx="886" cy="755" fill="#ADD1B2" rx="11" ry="11" style="stroke:#181818;stroke-width:1.0;"/><path d="M888.3438,750.6719 C887.4063,750.2344 886.8125,750.0938 885.9375,750.0938 C883.3125,750.0938 881.3125,752.1719 881.3125,754.8906 L881.3125,756.0156 C881.3125,758.5938 883.4219,760.4844 886.3125,760.4844 C887.5313,760.4844 888.6875,760.1875 889.4375,759.6406 C890.0156,759.2344 890.3438,758.7813 890.3438,758.3906 C890.3438,757.9375 889.9531,757.5469 889.4844,757.5469 C889.2656,757.5469 889.0625,757.625 888.875,757.8125 C888.4219,758.2969 888.4219,758.2969 888.2344,758.3906 C887.8125,758.6563 887.125,758.7813 886.3594,758.7813 C884.3125,758.7813 883.0156,757.6875 883.0156,755.9844 L883.0156,754.8906 C883.0156,753.1094 884.2656,751.7969 886,751.7969 C886.5781,751.7969 887.1875,751.9531 887.6563,752.2031 C888.1406,752.4844 888.3125,752.7031 888.4063,753.1094 C888.4688,753.5156 888.5,753.6406 888.6406,753.7656 C888.7813,753.9063 889.0156,754.0156 889.2344,754.0156 C889.5,754.0156 889.7656,753.875 889.9375,753.6563 C890.0469,753.5 890.0781,753.3125 890.0781,752.8906 L890.0781,751.4688 C890.0781,751.0313 890.0625,750.9063 889.9688,750.75 C889.8125,750.4844 889.5313,750.3438 889.2344,750.3438 C888.9375,750.3438 888.7344,750.4375 888.5156,750.75 L888.3438,750.6719 Z " fill="#000000"/><text fill="#000000" font-family="sans-serif" font-size="14" lengthAdjust="spacing" textLength="84" x="902" y="759.8467">Aroscebolla</text><line style="stroke:#181818;stroke-width:0.5;" x1="863" x2="997" y1="771" y2="771"/><line style="stroke:#181818;stroke-width:0.5;" x1="863" x2="997" y1="779" y2="779"/><ellipse cx="873" cy="792.6484" fill="#84BE84" rx="3" ry="3" style="stroke:#038048;stroke-width:1.0;"/><text fill="#000000" font-family="sans-serif" font-size="14" lengthAdjust="spacing" textLength="110" x="882" y="795.9951">operation(): str</text></g><!--class Postres--><g id="elem_Postres"><rect codeLine="45" fill="#F1F1F1" height="64.2969" id="Postres" rx="2.5" ry="2.5" style="stroke:#181818;stroke-width:0.5;" width="136" x="1033" y="541.5"/><ellipse cx="1070.5" cy="557.5" fill="#ADD1B2" rx="11" ry="11" style="stroke:#181818;stroke-width:1.0;"/><path d="M1072.8438,553.1719 C1071.9063,552.7344 1071.3125,552.5938 1070.4375,552.5938 C1067.8125,552.5938 1065.8125,554.6719 1065.8125,557.3906 L1065.8125,558.5156 C1065.8125,561.0938 1067.9219,562.9844 1070.8125,562.9844 C1072.0313,562.9844 1073.1875,562.6875 1073.9375,562.1406 C1074.5156,561.7344 1074.8438,561.2813 1074.8438,560.8906 C1074.8438,560.4375 1074.4531,560.0469 1073.9844,560.0469 C1073.7656,560.0469 1073.5625,560.125 1073.375,560.3125 C1072.9219,560.7969 1072.9219,560.7969 1072.7344,560.8906 C1072.3125,561.1563 1071.625,561.2813 1070.8594,561.2813 C1068.8125,561.2813 1067.5156,560.1875 1067.5156,558.4844 L1067.5156,557.3906 C1067.5156,555.6094 1068.7656,554.2969 1070.5,554.2969 C1071.0781,554.2969 1071.6875,554.4531 1072.1563,554.7031 C1072.6406,554.9844 1072.8125,555.2031 1072.9063,555.6094 C1072.9688,556.0156 1073,556.1406 1073.1406,556.2656 C1073.2813,556.4063 1073.5156,556.5156 1073.7344,556.5156 C1074,556.5156 1074.2656,556.375 1074.4375,556.1563 C1074.5469,556 1074.5781,555.8125 1074.5781,555.3906 L1074.5781,553.9688 C1074.5781,553.5313 1074.5625,553.4063 1074.4688,553.25 C1074.3125,552.9844 1074.0313,552.8438 1073.7344,552.8438 C1073.4375,552.8438 1073.2344,552.9375 1073.0156,553.25 L1072.8438,553.1719 Z " fill="#000000"/><text fill="#000000" font-family="sans-serif" font-size="14" lengthAdjust="spacing" textLength="54" x="1089.5" y="562.3467">Postres</text><line style="stroke:#181818;stroke-width:0.5;" x1="1034" x2="1168" y1="573.5" y2="573.5"/><line style="stroke:#181818;stroke-width:0.5;" x1="1034" x2="1168" y1="581.5" y2="581.5"/><ellipse cx="1044" cy="595.1484" fill="#84BE84" rx="3" ry="3" style="stroke:#038048;stroke-width:1.0;"/><text fill="#000000" font-family="sans-serif" font-size="14" lengthAdjust="spacing" textLength="110" x="1053" y="598.4951">operation(): str</text></g><!--class TartaQueso--><g id="elem_TartaQueso"><rect codeLine="49" fill="#F1F1F1" height="64.2969" id="TartaQueso" rx="2.5" ry="2.5" style="stroke:#181818;stroke-width:0.5;" width="136" x="1033" y="739"/><ellipse cx="1057.9" cy="755" fill="#ADD1B2" rx="11" ry="11" style="stroke:#181818;stroke-width:1.0;"/><path d="M1060.2438,750.6719 C1059.3063,750.2344 1058.7125,750.0938 1057.8375,750.0938 C1055.2125,750.0938 1053.2125,752.1719 1053.2125,754.8906 L1053.2125,756.0156 C1053.2125,758.5938 1055.3219,760.4844 1058.2125,760.4844 C1059.4313,760.4844 1060.5875,760.1875 1061.3375,759.6406 C1061.9156,759.2344 1062.2438,758.7813 1062.2438,758.3906 C1062.2438,757.9375 1061.8531,757.5469 1061.3844,757.5469 C1061.1656,757.5469 1060.9625,757.625 1060.775,757.8125 C1060.3219,758.2969 1060.3219,758.2969 1060.1344,758.3906 C1059.7125,758.6563 1059.025,758.7813 1058.2594,758.7813 C1056.2125,758.7813 1054.9156,757.6875 1054.9156,755.9844 L1054.9156,754.8906 C1054.9156,753.1094 1056.1656,751.7969 1057.9,751.7969 C1058.4781,751.7969 1059.0875,751.9531 1059.5563,752.2031 C1060.0406,752.4844 1060.2125,752.7031 1060.3063,753.1094 C1060.3688,753.5156 1060.4,753.6406 1060.5406,753.7656 C1060.6813,753.9063 1060.9156,754.0156 1061.1344,754.0156 C1061.4,754.0156 1061.6656,753.875 1061.8375,753.6563 C1061.9469,753.5 1061.9781,753.3125 1061.9781,752.8906 L1061.9781,751.4688 C1061.9781,751.0313 1061.9625,750.9063 1061.8688,750.75 C1061.7125,750.4844 1061.4313,750.3438 1061.1344,750.3438 C1060.8375,750.3438 1060.6344,750.4375 1060.4156,750.75 L1060.2438,750.6719 Z " fill="#000000"/><text fill="#000000" font-family="sans-serif" font-size="14" lengthAdjust="spacing" textLength="82" x="1074.1" y="759.8467">TartaQueso</text><line style="stroke:#181818;stroke-width:0.5;" x1="1034" x2="1168" y1="771" y2="771"/><line style="stroke:#181818;stroke-width:0.5;" x1="1034" x2="1168" y1="779" y2="779"/><ellipse cx="1044" cy="792.6484" fill="#84BE84" rx="3" ry="3" style="stroke:#038048;stroke-width:1.0;"/><text fill="#000000" font-family="sans-serif" font-size="14" lengthAdjust="spacing" textLength="110" x="1053" y="795.9951">operation(): str</text></g><!--class Flan--><g id="elem_Flan"><rect codeLine="53" fill="#F1F1F1" height="64.2969" id="Flan" rx="2.5" ry="2.5" style="stroke:#181818;stroke-width:0.5;" width="136" x="1204" y="739"/><ellipse cx="1253.25" cy="755" fill="#ADD1B2" rx="11" ry="11" style="stroke:#181818;stroke-width:1.0;"/><path d="M1255.5938,750.6719 C1254.6563,750.2344 1254.0625,750.0938 1253.1875,750.0938 C1250.5625,750.0938 1248.5625,752.1719 1248.5625,754.8906 L1248.5625,756.0156 C1248.5625,758.5938 1250.6719,760.4844 1253.5625,760.4844 C1254.7813,760.4844 1255.9375,760.1875 1256.6875,759.6406 C1257.2656,759.2344 1257.5938,758.7813 1257.5938,758.3906 C1257.5938,757.9375 1257.2031,757.5469 1256.7344,757.5469 C1256.5156,757.5469 1256.3125,757.625 1256.125,757.8125 C1255.6719,758.2969 1255.6719,758.2969 1255.4844,758.3906 C1255.0625,758.6563 1254.375,758.7813 1253.6094,758.7813 C1251.5625,758.7813 1250.2656,757.6875 1250.2656,755.9844 L1250.2656,754.8906 C1250.2656,753.1094 1251.5156,751.7969 1253.25,751.7969 C1253.8281,751.7969 1254.4375,751.9531 1254.9063,752.2031 C1255.3906,752.4844 1255.5625,752.7031 1255.6563,753.1094 C1255.7188,753.5156 1255.75,753.6406 1255.8906,753.7656 C1256.0313,753.9063 1256.2656,754.0156 1256.4844,754.0156 C1256.75,754.0156 1257.0156,753.875 1257.1875,753.6563 C1257.2969,753.5 1257.3281,753.3125 1257.3281,752.8906 L1257.3281,751.4688 C1257.3281,751.0313 1257.3125,750.9063 1257.2188,750.75 C1257.0625,750.4844 1256.7813,750.3438 1256.4844,750.3438 C1256.1875,750.3438 1255.9844,750.4375 1255.7656,750.75 L1255.5938,750.6719 Z " fill="#000000"/><text fill="#000000" font-family="sans-serif" font-size="14" lengthAdjust="spacing" textLength="29" x="1273.75" y="759.8467">Flan</text><line style="stroke:#181818;stroke-width:0.5;" x1="1205" x2="1339" y1="771" y2="771"/><line style="stroke:#181818;stroke-width:0.5;" x1="1205" x2="1339" y1="779" y2="779"/><ellipse cx="1215" cy="792.6484" fill="#84BE84" rx="3" ry="3" style="stroke:#038048;stroke-width:1.0;"/><text fill="#000000" font-family="sans-serif" font-size="14" lengthAdjust="spacing" textLength="110" x="1224" y="795.9951">operation(): str</text></g><!--class Helado--><g id="elem_Helado"><rect codeLine="57" fill="#F1F1F1" height="64.2969" id="Helado" rx="2.5" ry="2.5" style="stroke:#181818;stroke-width:0.5;" width="136" x="1375" y="739"/><ellipse cx="1414.75" cy="755" fill="#ADD1B2" rx="11" ry="11" style="stroke:#181818;stroke-width:1.0;"/><path d="M1417.0938,750.6719 C1416.1563,750.2344 1415.5625,750.0938 1414.6875,750.0938 C1412.0625,750.0938 1410.0625,752.1719 1410.0625,754.8906 L1410.0625,756.0156 C1410.0625,758.5938 1412.1719,760.4844 1415.0625,760.4844 C1416.2813,760.4844 1417.4375,760.1875 1418.1875,759.6406 C1418.7656,759.2344 1419.0938,758.7813 1419.0938,758.3906 C1419.0938,757.9375 1418.7031,757.5469 1418.2344,757.5469 C1418.0156,757.5469 1417.8125,757.625 1417.625,757.8125 C1417.1719,758.2969 1417.1719,758.2969 1416.9844,758.3906 C1416.5625,758.6563 1415.875,758.7813 1415.1094,758.7813 C1413.0625,758.7813 1411.7656,757.6875 1411.7656,755.9844 L1411.7656,754.8906 C1411.7656,753.1094 1413.0156,751.7969 1414.75,751.7969 C1415.3281,751.7969 1415.9375,751.9531 1416.4063,752.2031 C1416.8906,752.4844 1417.0625,752.7031 1417.1563,753.1094 C1417.2188,753.5156 1417.25,753.6406 1417.3906,753.7656 C1417.5313,753.9063 1417.7656,754.0156 1417.9844,754.0156 C1418.25,754.0156 1418.5156,753.875 1418.6875,753.6563 C1418.7969,753.5 1418.8281,753.3125 1418.8281,752.8906 L1418.8281,751.4688 C1418.8281,751.0313 1418.8125,750.9063 1418.7188,750.75 C1418.5625,750.4844 1418.2813,750.3438 1417.9844,750.3438 C1417.6875,750.3438 1417.4844,750.4375 1417.2656,750.75 L1417.0938,750.6719 Z " fill="#000000"/><text fill="#000000" font-family="sans-serif" font-size="14" lengthAdjust="spacing" textLength="49" x="1434.25" y="759.8467">Helado</text><line style="stroke:#181818;stroke-width:0.5;" x1="1376" x2="1510" y1="771" y2="771"/><line style="stroke:#181818;stroke-width:0.5;" x1="1376" x2="1510" y1="779" y2="779"/><ellipse cx="1386" cy="792.6484" fill="#84BE84" rx="3" ry="3" style="stroke:#038048;stroke-width:1.0;"/><text fill="#000000" font-family="sans-serif" font-size="14" lengthAdjust="spacing" textLength="110" x="1395" y="795.9951">operation(): str</text></g><!--class Pizza--><g id="elem_Pizza"><rect codeLine="61" fill="#F1F1F1" height="210.9688" id="Pizza" rx="2.5" ry="2.5" style="stroke:#181818;stroke-width:0.5;" width="238" x="1204" y="468"/><ellipse cx="1300.25" cy="484" fill="#ADD1B2" rx="11" ry="11" style="stroke:#181818;stroke-width:1.0;"/><path d="M1302.5938,479.6719 C1301.6563,479.2344 1301.0625,479.0938 1300.1875,479.0938 C1297.5625,479.0938 1295.5625,481.1719 1295.5625,483.8906 L1295.5625,485.0156 C1295.5625,487.5938 1297.6719,489.4844 1300.5625,489.4844 C1301.7813,489.4844 1302.9375,489.1875 1303.6875,488.6406 C1304.2656,488.2344 1304.5938,487.7813 1304.5938,487.3906 C1304.5938,486.9375 1304.2031,486.5469 1303.7344,486.5469 C1303.5156,486.5469 1303.3125,486.625 1303.125,486.8125 C1302.6719,487.2969 1302.6719,487.2969 1302.4844,487.3906 C1302.0625,487.6563 1301.375,487.7813 1300.6094,487.7813 C1298.5625,487.7813 1297.2656,486.6875 1297.2656,484.9844 L1297.2656,483.8906 C1297.2656,482.1094 1298.5156,480.7969 1300.25,480.7969 C1300.8281,480.7969 1301.4375,480.9531 1301.9063,481.2031 C1302.3906,481.4844 1302.5625,481.7031 1302.6563,482.1094 C1302.7188,482.5156 1302.75,482.6406 1302.8906,482.7656 C1303.0313,482.9063 1303.2656,483.0156 1303.4844,483.0156 C1303.75,483.0156 1304.0156,482.875 1304.1875,482.6563 C1304.2969,482.5 1304.3281,482.3125 1304.3281,481.8906 L1304.3281,480.4688 C1304.3281,480.0313 1304.3125,479.9063 1304.2188,479.75 C1304.0625,479.4844 1303.7813,479.3438 1303.4844,479.3438 C1303.1875,479.3438 1302.9844,479.4375 1302.7656,479.75 L1302.5938,479.6719 Z " fill="#000000"/><text fill="#000000" font-family="sans-serif" font-size="14" lengthAdjust="spacing" textLength="37" x="1320.75" y="488.8467">Pizza</text><line style="stroke:#181818;stroke-width:0.5;" x1="1205" x2="1441" y1="500" y2="500"/><rect fill="none" height="6" style="stroke:#C82930;stroke-width:1.0;" width="6" x="1212" y="510.6484"/><text fill="#000000" font-family="sans-serif" font-size="14" lengthAdjust="spacing" textLength="110" x="1224" y="516.9951">parts: List[Any]</text><rect fill="none" height="6" style="stroke:#C82930;stroke-width:1.0;" width="6" x="1212" y="526.9453"/><text fill="#000000" font-family="sans-serif" font-size="14" lengthAdjust="spacing" textLength="75" x="1224" y="533.292">precio: int</text><rect fill="none" height="6" style="stroke:#C82930;stroke-width:1.0;" width="6" x="1212" y="543.2422"/><text fill="#000000" font-family="sans-serif" font-size="14" lengthAdjust="spacing" textLength="86" x="1224" y="549.5889">nombre: str</text><line style="stroke:#181818;stroke-width:0.5;" x1="1205" x2="1441" y1="556.8906" y2="556.8906"/><ellipse cx="1215" cy="570.5391" fill="#84BE84" rx="3" ry="3" style="stroke:#038048;stroke-width:1.0;"/><text fill="#000000" font-family="sans-serif" font-size="14" lengthAdjust="spacing" textLength="47" x="1224" y="573.8857">Pizza()</text><ellipse cx="1215" cy="586.8359" fill="#84BE84" rx="3" ry="3" style="stroke:#038048;stroke-width:1.0;"/><text fill="#000000" font-family="sans-serif" font-size="14" lengthAdjust="spacing" textLength="128" x="1224" y="590.1826">get_nombre(): str</text><ellipse cx="1215" cy="603.1328" fill="#84BE84" rx="3" ry="3" style="stroke:#038048;stroke-width:1.0;"/><text fill="#000000" font-family="sans-serif" font-size="14" lengthAdjust="spacing" textLength="212" x="1224" y="606.4795">set_nombre(nombre: str): str</text><ellipse cx="1215" cy="619.4297" fill="#84BE84" rx="3" ry="3" style="stroke:#038048;stroke-width:1.0;"/><text fill="#000000" font-family="sans-serif" font-size="14" lengthAdjust="spacing" textLength="142" x="1224" y="622.7764">add(part: Any): void</text><ellipse cx="1215" cy="635.7266" fill="#84BE84" rx="3" ry="3" style="stroke:#038048;stroke-width:1.0;"/><text fill="#000000" font-family="sans-serif" font-size="14" lengthAdjust="spacing" textLength="110" x="1224" y="639.0732">operation(): str</text><ellipse cx="1215" cy="652.0234" fill="#84BE84" rx="3" ry="3" style="stroke:#038048;stroke-width:1.0;"/><text fill="#000000" font-family="sans-serif" font-size="14" lengthAdjust="spacing" textLength="116" x="1224" y="655.3701">list_parts(): void</text><ellipse cx="1215" cy="668.3203" fill="#84BE84" rx="3" ry="3" style="stroke:#038048;stroke-width:1.0;"/><text fill="#000000" font-family="sans-serif" font-size="14" lengthAdjust="spacing" textLength="201" x="1224" y="671.667">guardar_ingredientes(): void</text></g><!--class Combo--><g id="elem_Combo"><rect codeLine="75" fill="#F1F1F1" height="145.7813" id="Combo" rx="2.5" ry="2.5" style="stroke:#181818;stroke-width:0.5;" width="398" x="1118" y="262"/><ellipse cx="1286.75" cy="278" fill="#ADD1B2" rx="11" ry="11" style="stroke:#181818;stroke-width:1.0;"/><path d="M1289.0938,273.6719 C1288.1563,273.2344 1287.5625,273.0938 1286.6875,273.0938 C1284.0625,273.0938 1282.0625,275.1719 1282.0625,277.8906 L1282.0625,279.0156 C1282.0625,281.5938 1284.1719,283.4844 1287.0625,283.4844 C1288.2813,283.4844 1289.4375,283.1875 1290.1875,282.6406 C1290.7656,282.2344 1291.0938,281.7813 1291.0938,281.3906 C1291.0938,280.9375 1290.7031,280.5469 1290.2344,280.5469 C1290.0156,280.5469 1289.8125,280.625 1289.625,280.8125 C1289.1719,281.2969 1289.1719,281.2969 1288.9844,281.3906 C1288.5625,281.6563 1287.875,281.7813 1287.1094,281.7813 C1285.0625,281.7813 1283.7656,280.6875 1283.7656,278.9844 L1283.7656,277.8906 C1283.7656,276.1094 1285.0156,274.7969 1286.75,274.7969 C1287.3281,274.7969 1287.9375,274.9531 1288.4063,275.2031 C1288.8906,275.4844 1289.0625,275.7031 1289.1563,276.1094 C1289.2188,276.5156 1289.25,276.6406 1289.3906,276.7656 C1289.5313,276.9063 1289.7656,277.0156 1289.9844,277.0156 C1290.25,277.0156 1290.5156,276.875 1290.6875,276.6563 C1290.7969,276.5 1290.8281,276.3125 1290.8281,275.8906 L1290.8281,274.4688 C1290.8281,274.0313 1290.8125,273.9063 1290.7188,273.75 C1290.5625,273.4844 1290.2813,273.3438 1289.9844,273.3438 C1289.6875,273.3438 1289.4844,273.4375 1289.2656,273.75 L1289.0938,273.6719 Z " fill="#000000"/><text fill="#000000" font-family="sans-serif" font-size="14" lengthAdjust="spacing" textLength="52" x="1307.25" y="282.8467">Combo</text><line style="stroke:#181818;stroke-width:0.5;" x1="1119" x2="1515" y1="294" y2="294"/><rect fill="none" height="6" style="stroke:#C82930;stroke-width:1.0;" width="6" x="1126" y="304.6484"/><text fill="#000000" font-family="sans-serif" font-size="14" lengthAdjust="spacing" textLength="196" x="1138" y="310.9951">_children: List[Component]</text><line style="stroke:#181818;stroke-width:0.5;" x1="1119" x2="1515" y1="318.2969" y2="318.2969"/><ellipse cx="1129" cy="331.9453" fill="#84BE84" rx="3" ry="3" style="stroke:#038048;stroke-width:1.0;"/><text fill="#000000" font-family="sans-serif" font-size="14" lengthAdjust="spacing" textLength="62" x="1138" y="335.292">Combo()</text><ellipse cx="1129" cy="348.2422" fill="#84BE84" rx="3" ry="3" style="stroke:#038048;stroke-width:1.0;"/><text fill="#000000" font-family="sans-serif" font-size="14" lengthAdjust="spacing" textLength="372" x="1138" y="351.5889">a&#241;adir_componente(component: Component): void</text><ellipse cx="1129" cy="364.5391" fill="#84BE84" rx="3" ry="3" style="stroke:#038048;stroke-width:1.0;"/><text fill="#000000" font-family="sans-serif" font-size="14" lengthAdjust="spacing" textLength="146" x="1138" y="367.8857">is_composite(): bool</text><ellipse cx="1129" cy="380.8359" fill="#84BE84" rx="3" ry="3" style="stroke:#038048;stroke-width:1.0;"/><text fill="#000000" font-family="sans-serif" font-size="14" lengthAdjust="spacing" textLength="116" x="1138" y="384.1826">elementos(): str</text><ellipse cx="1129" cy="397.1328" fill="#84BE84" rx="3" ry="3" style="stroke:#038048;stroke-width:1.0;"/><text fill="#000000" font-family="sans-serif" font-size="14" lengthAdjust="spacing" textLength="110" x="1138" y="400.4795">operation(): int</text></g><!--class DirectorMenus--><g id="elem_DirectorMenus"><rect codeLine="85" fill="#F1F1F1" height="194.6719" id="DirectorMenus" rx="2.5" ry="2.5" style="stroke:#181818;stroke-width:0.5;" width="234" x="1397" y="7"/><ellipse cx="1457.25" cy="23" fill="#ADD1B2" rx="11" ry="11" style="stroke:#181818;stroke-width:1.0;"/><path d="M1459.5938,18.6719 C1458.6563,18.2344 1458.0625,18.0938 1457.1875,18.0938 C1454.5625,18.0938 1452.5625,20.1719 1452.5625,22.8906 L1452.5625,24.0156 C1452.5625,26.5938 1454.6719,28.4844 1457.5625,28.4844 C1458.7813,28.4844 1459.9375,28.1875 1460.6875,27.6406 C1461.2656,27.2344 1461.5938,26.7813 1461.5938,26.3906 C1461.5938,25.9375 1461.2031,25.5469 1460.7344,25.5469 C1460.5156,25.5469 1460.3125,25.625 1460.125,25.8125 C1459.6719,26.2969 1459.6719,26.2969 1459.4844,26.3906 C1459.0625,26.6563 1458.375,26.7813 1457.6094,26.7813 C1455.5625,26.7813 1454.2656,25.6875 1454.2656,23.9844 L1454.2656,22.8906 C1454.2656,21.1094 1455.5156,19.7969 1457.25,19.7969 C1457.8281,19.7969 1458.4375,19.9531 1458.9063,20.2031 C1459.3906,20.4844 1459.5625,20.7031 1459.6563,21.1094 C1459.7188,21.5156 1459.75,21.6406 1459.8906,21.7656 C1460.0313,21.9063 1460.2656,22.0156 1460.4844,22.0156 C1460.75,22.0156 1461.0156,21.875 1461.1875,21.6563 C1461.2969,21.5 1461.3281,21.3125 1461.3281,20.8906 L1461.3281,19.4688 C1461.3281,19.0313 1461.3125,18.9063 1461.2188,18.75 C1461.0625,18.4844 1460.7813,18.3438 1460.4844,18.3438 C1460.1875,18.3438 1459.9844,18.4375 1459.7656,18.75 L1459.5938,18.6719 Z " fill="#000000"/><text fill="#000000" font-family="sans-serif" font-size="14" lengthAdjust="spacing" textLength="105" x="1477.75" y="27.8467">DirectorMenus</text><line style="stroke:#181818;stroke-width:0.5;" x1="1398" x2="1630" y1="39" y2="39"/><rect fill="none" height="6" style="stroke:#C82930;stroke-width:1.0;" width="6" x="1405" y="49.6484"/><text fill="#000000" font-family="sans-serif" font-size="14" lengthAdjust="spacing" textLength="116" x="1417" y="55.9951">_builder: Builder</text><text fill="#000000" font-family="sans-serif" font-size="14" lengthAdjust="spacing" textLength="4" x="1417" y="72.292">&#160;</text><ellipse cx="1408" cy="85.2422" fill="none" rx="3" ry="3" style="stroke:#038048;stroke-width:1.0;"/><text fill="#000000" font-family="sans-serif" font-size="14" lengthAdjust="spacing" textLength="109" x="1417" y="88.5889">builder: Builder</text><line style="stroke:#181818;stroke-width:0.5;" x1="1398" x2="1630" y1="95.8906" y2="95.8906"/><ellipse cx="1408" cy="109.5391" fill="#84BE84" rx="3" ry="3" style="stroke:#038048;stroke-width:1.0;"/><text fill="#000000" font-family="sans-serif" font-size="14" lengthAdjust="spacing" textLength="115" x="1417" y="112.8857">DirectorMenus()</text><ellipse cx="1408" cy="125.8359" fill="#84BE84" rx="3" ry="3" style="stroke:#038048;stroke-width:1.0;"/><text fill="#000000" font-family="sans-serif" font-size="14" lengthAdjust="spacing" textLength="208" x="1417" y="129.1826">builder(builder: Builder): void</text><ellipse cx="1408" cy="142.1328" fill="#84BE84" rx="3" ry="3" style="stroke:#038048;stroke-width:1.0;"/><text fill="#000000" font-family="sans-serif" font-size="14" lengthAdjust="spacing" textLength="144" x="1417" y="145.4795">menu_simple(): void</text><ellipse cx="1408" cy="158.4297" fill="#84BE84" rx="3" ry="3" style="stroke:#038048;stroke-width:1.0;"/><text fill="#000000" font-family="sans-serif" font-size="14" lengthAdjust="spacing" textLength="172" x="1417" y="161.7764">menu_pepperoni(): void</text><ellipse cx="1408" cy="174.7266" fill="#84BE84" rx="3" ry="3" style="stroke:#038048;stroke-width:1.0;"/><text fill="#000000" font-family="sans-serif" font-size="14" lengthAdjust="spacing" textLength="153" x="1417" y="178.0732">menu_del_mar(): void</text><ellipse cx="1408" cy="191.0234" fill="#84BE84" rx="3" ry="3" style="stroke:#038048;stroke-width:1.0;"/><text fill="#000000" font-family="sans-serif" font-size="14" lengthAdjust="spacing" textLength="141" x="1417" y="194.3701">menu_pareja(): void</text></g><!--reverse link Component to Leaf--><g id="link_Component_Leaf"><path codeLine="97" d="M1114.0156,184.1669 C1085.2156,227.7449 1058.21,268.613 1035.59,302.838 " fill="none" id="Component-backto-Leaf" style="stroke:#181818;stroke-width:1.0;"/><polygon fill="none" points="1123.94,169.15,1109.01,180.8587,1119.0212,187.475,1123.94,169.15" style="stroke:#181818;stroke-width:1.0;"/></g><!--reverse link Leaf to Bebidas--><g id="link_Leaf_Bebidas"><path codeLine="98" d="M929.6908,365.5397 C798.7738,410.8717 530.931,503.617 400.14,548.905 " fill="none" id="Leaf-backto-Bebidas" style="stroke:#181818;stroke-width:1.0;"/><polygon fill="none" points="946.7,359.65,927.7276,359.87,931.6541,371.2094,946.7,359.65" style="stroke:#181818;stroke-width:1.0;"/></g><!--reverse link Bebidas to Agua--><g id="link_Bebidas_Agua"><path codeLine="99" d="M276.6669,616.5919 C228.6259,653.1369 163.839,702.42 115.861,738.9174 " fill="none" id="Bebidas-backto-Agua" style="stroke:#181818;stroke-width:1.0;"/><polygon fill="none" points="290.993,605.694,273.0343,611.8165,280.2996,621.3672,290.993,605.694" style="stroke:#181818;stroke-width:1.0;"/></g><!--reverse link Bebidas to Refresco--><g id="link_Bebidas_Refresco"><path codeLine="100" d="M310.9352,622.3863 C294.8392,658.9773 275.661,702.573 259.641,738.9904 " fill="none" id="Bebidas-backto-Refresco" style="stroke:#181818;stroke-width:1.0;"/><polygon fill="none" points="318.183,605.91,305.4431,619.9704,316.4273,624.8023,318.183,605.91" style="stroke:#181818;stroke-width:1.0;"/></g><!--reverse link Bebidas to Cerveza--><g id="link_Bebidas_Cerveza"><path codeLine="101" d="M352.834,622.4173 C368.743,659.0083 387.684,702.573 403.518,738.9904 " fill="none" id="Bebidas-backto-Cerveza" style="stroke:#181818;stroke-width:1.0;"/><polygon fill="none" points="345.657,605.91,347.3316,624.8096,358.3364,620.0249,345.657,605.91" style="stroke:#181818;stroke-width:1.0;"/></g><!--reverse link Leaf to Entrantes--><g id="link_Leaf_Entrantes"><path codeLine="102" d="M981.7464,381.9916 C948.9494,427.3516 899.226,496.12 866.529,541.341 " fill="none" id="Leaf-backto-Entrantes" style="stroke:#181818;stroke-width:1.0;"/><polygon fill="none" points="992.293,367.405,976.8842,378.476,986.6085,385.5071,992.293,367.405" style="stroke:#181818;stroke-width:1.0;"/></g><!--reverse link Entrantes to Nachos--><g id="link_Entrantes_Nachos"><path codeLine="103" d="M788.8475,616.6188 C740.9935,653.1638 676.493,702.42 628.702,738.9174 " fill="none" id="Entrantes-backto-Nachos" style="stroke:#181818;stroke-width:1.0;"/><polygon fill="none" points="803.153,605.694,785.2059,611.8503,792.4891,621.3873,803.153,605.694" style="stroke:#181818;stroke-width:1.0;"/></g><!--reverse link Entrantes to Alitas--><g id="link_Entrantes_Alitas"><path codeLine="104" d="M823.166,622.4173 C807.257,659.0083 788.316,702.573 772.482,738.9904 " fill="none" id="Entrantes-backto-Alitas" style="stroke:#181818;stroke-width:1.0;"/><polygon fill="none" points="830.343,605.91,817.6636,620.0249,828.6684,624.8096,830.343,605.91" style="stroke:#181818;stroke-width:1.0;"/></g><!--reverse link Entrantes to Aroscebolla--><g id="link_Entrantes_Aroscebolla"><path codeLine="105" d="M865.0648,622.3863 C881.1608,658.9773 900.339,702.573 916.359,738.9904 " fill="none" id="Entrantes-backto-Aroscebolla" style="stroke:#181818;stroke-width:1.0;"/><polygon fill="none" points="857.817,605.91,859.5727,624.8023,870.5569,619.9704,857.817,605.91" style="stroke:#181818;stroke-width:1.0;"/></g><!--reverse link Leaf to Postres--><g id="link_Leaf_Postres"><path codeLine="106" d="M1032.5699,384.3218 C1049.0599,429.6818 1073.23,496.12 1089.67,541.341 " fill="none" id="Leaf-backto-Postres" style="stroke:#181818;stroke-width:1.0;"/><polygon fill="none" points="1026.42,367.405,1026.9309,386.3718,1038.2088,382.2719,1026.42,367.405" style="stroke:#181818;stroke-width:1.0;"/></g><!--reverse link Postres to TartaQueso--><g id="link_Postres_TartaQueso"><path codeLine="107" d="M1101,623.91 C1101,660.501 1101,702.573 1101,738.9904 " fill="none" id="Postres-backto-TartaQueso" style="stroke:#181818;stroke-width:1.0;"/><polygon fill="none" points="1101,605.91,1095,623.91,1107,623.91,1101,605.91" style="stroke:#181818;stroke-width:1.0;"/></g><!--reverse link Postres to Flan--><g id="link_Postres_Flan"><path codeLine="108" d="M1137.0034,619.5764 C1153.9334,640.5884 1165.78,654.799 1187,679 C1204.82,699.317 1225.5,721.4893 1242,738.8611 " fill="none" id="Postres-backto-Flan" style="stroke:#181818;stroke-width:1.0;"/><polygon fill="none" points="1125.71,605.56,1132.3313,623.3408,1141.6755,615.8119,1125.71,605.56" style="stroke:#181818;stroke-width:1.0;"/></g><!--reverse link Postres to Helado--><g id="link_Postres_Helado"><path codeLine="109" d="M1130.0651,620.8336 C1145.5351,643.9366 1159.26,659.622 1187,679 C1253.02,725.1291 1282.16,711.868 1358,739 C1363.47,740.9578 1369.14,742.9973 1374.83,745.0539 " fill="none" id="Postres-backto-Helado" style="stroke:#181818;stroke-width:1.0;"/><polygon fill="none" points="1120.05,605.877,1125.0795,624.1719,1135.0506,617.4952,1120.05,605.877" style="stroke:#181818;stroke-width:1.0;"/></g><!--reverse link Leaf to Pizza--><g id="link_Leaf_Pizza"><path codeLine="110" d="M1064.5449,378.8567 C1079.7649,391.7937 1084.14,395.103 1101,408 C1138.01,436.319 1149.4,440.461 1187,468 C1192.53,472.047 1198.16,476.21 1203.83,480.436 " fill="none" id="Leaf-backto-Pizza" style="stroke:#181818;stroke-width:1.0;"/><polygon fill="none" points="1050.83,367.199,1060.659,383.4283,1068.4308,374.285,1050.83,367.199" style="stroke:#181818;stroke-width:1.0;"/></g><!--reverse link Component to Combo--><g id="link_Component_Combo"><path codeLine="111" d="M1217.986,184.1658 C1237.016,212.9538 1249.66,232.096 1269.31,261.834 " fill="none" id="Component-backto-Combo" style="stroke:#181818;stroke-width:1.0;"/><polygon fill="none" points="1208.06,169.15,1212.9808,187.4745,1222.9913,180.8571,1208.06,169.15" style="stroke:#181818;stroke-width:1.0;"/></g><!--SRC=[bLHDJjum4Dtd55u6eLmWOWEqLHTGqQexXA99F7mOENPaEqX0ELJFq8jrR2UVyzFYTkUyUHw_cSmRQAqpq3dMIR2MNUf-q0gLOwy5OwymHT_OwG26u3en_XWlTxIJcZrfmJTi-FKJk31DDzEmF1wpbuMDzwoWQqHfjPORYXxGW1DQ-JYXnLjHn0gl4Ev3SUzmBh0L76oETduO8SVvXlS6RQTpl4iqJ_YIJVTHKONKhQosBz0zw7m5KhX_gDDess6hfSpgkz7qcLVt7Oo3hoFQR5y-IL0vpcUKmBEPRiJBrD-AXjJPcbq9wsxFrVDTm0nsGjTCXCckbEvRWp65pnjkboV-U43NnF3y1e4sWOkhAGwSUs_GSDE3QQptUWcJfAi96ii5auRDS32DK0U3N7ZFf7YQ8teyjg9gkWSXETbnglJeghjGKM36YlxRZN-pu2bAx8cfxQASLOc-lKUn7mGrtMbpZMgqa-Xs9D5eQdOH3q7hYXWrxtW9AxUnXN1IDpPMz8F4SWiFE91KhSGkmb4sFPZz3TfsZx3y2sc1dlsegh1jYh1omkUqM8fvmGJGhv4rCY-DDJgjY4MwupOeqbu8WUZ-BHhTlaEJknUf9oCNiw43c6oxnhr9rqYqv3AVzy-sEs44VmC0]--></g></svg>